<svg id="Layer_1" data-name="Layer 1" xmlns="http://www.w3.org/2000/svg" xmlns:xlink="http://www.w3.org/1999/xlink" viewBox="0 0 1800 1800"><defs><style>.cls-1{fill:#444;}.cls-2{fill:#ea217d;}.cls-16,.cls-3{fill:#161616;}.cls-20,.cls-3{opacity:0.5;}.cls-16,.cls-20,.cls-3{isolation:isolate;}.cls-10,.cls-11,.cls-12,.cls-14,.cls-18,.cls-4,.cls-5,.cls-6,.cls-7,.cls-8,.cls-9{fill:none;stroke-linecap:round;stroke-linejoin:round;}.cls-14,.cls-4,.cls-5,.cls-6,.cls-7{stroke:#ea217d;}.cls-10,.cls-4,.cls-5,.cls-6,.cls-8,.cls-9{stroke-width:20.31px;}.cls-5{stroke-dasharray:92.98 92.98 92.98 92.98;}.cls-6{stroke-dasharray:92.98 92.98 92.98 92.98 92.98 92.98;}.cls-11,.cls-7{stroke-width:20.31px;}.cls-10,.cls-11,.cls-8,.cls-9{stroke:#24bde0;}.cls-9{stroke-dasharray:91.6 91.6 91.6 91.6;}.cls-10{stroke-dasharray:91.6 91.6 91.6 91.6 91.6 91.6;}.cls-12{stroke:#fff;stroke-width:62.86px;}.cls-13{fill:#0768aa;}.cls-14,.cls-18{stroke-width:25px;}.cls-15{fill:#24bde0;}.cls-16{opacity:0.15;}.cls-17{fill:#fff;}.cls-18{stroke:#0768aa;}.cls-19{fill:#efd61d;}.cls-20{fill:url(#linear-gradient);}</style><linearGradient id="linear-gradient" x1="695.7" y1="695.7" x2="910.5" y2="910.5" gradientTransform="matrix(1, 0, 0, -1, 0, 1800)" gradientUnits="userSpaceOnUse"><stop offset="0" stop-opacity="0"/><stop offset="1"/></linearGradient></defs><title>gobattle</title><circle class="cls-1" cx="900" cy="900" r="800"/><circle class="cls-2" cx="900" cy="900" r="706.8"/><path class="cls-3" d="M900,1700c220.9,0,420.9-89.5,565.7-234.3L334.3,334.3C189.5,479.1,100,679.1,100,900,100,1341.8,458.2,1700,900,1700Z"/><circle class="cls-2" cx="478.7" cy="478.7" r="110.8"/><path class="cls-4" d="M366.7,1433.3c-11.9-11.9-23.3-24-34.2-36.5"/><path class="cls-5" d="M275.7,1323.3A750.23,750.23,0,0,1,156,1023.4"/><path class="cls-6" d="M149.8,977.4c-17.2-168.1,21.9-340.9,117.3-487.7"/><path class="cls-4" d="M293.6,451.5c9.9-13.3,20.2-26.4,31.1-39.1"/><path class="cls-7" d="M1433.3,1433.3c-294.5,294.5-772,294.5-1066.6,0"/><path class="cls-8" d="M1433.3,366.7c11.9,11.9,23.3,24,34.2,36.5"/><path class="cls-9" d="M1523.6,475.5a750.55,750.55,0,0,1,119.5,294.9"/><path class="cls-10" d="M1649.5,815.8c18.5,165.6-17.8,336.2-108.8,482.4"/><path class="cls-8" d="M1515.3,1336.2q-14.4,20.25-30.3,39.8"/><path class="cls-11" d="M366.7,366.7c294.5-294.5,772-294.5,1066.6,0"/><path class="cls-12" d="M297.9,867.7c0-315.1,255.5-570.6,570.6-570.6"/><circle class="cls-13" cx="900" cy="900" r="485.2"/><path class="cls-14" d="M1289.6,1289.6c-215.2,215.2-564.1,215.2-779.2,0"/><path class="cls-14" d="M1346.2,1346.2c-246.4,246.4-645.9,246.4-892.3,0"/><circle class="cls-15" cx="900" cy="900" r="385.1"/><path class="cls-16" d="M900,1385.2a483.68,483.68,0,0,0,343.1-142.1L556.9,556.9A483.68,483.68,0,0,0,414.8,900C414.8,1168,632,1385.2,900,1385.2Z"/><circle class="cls-17" cx="900" cy="900" r="101.6"/><path class="cls-18" d="M900,975a75,75,0,0,1-75-75"/><path class="cls-1" d="M838.9,477.6V256.7a18.52,18.52,0,0,1,18.5-18.5h68.2a18.67,18.67,0,0,1,12,4.4l17,14.5a18.63,18.63,0,0,1,6.5,14.1V463.1a18.63,18.63,0,0,1-6.5,14.1l-17,14.5a18.14,18.14,0,0,1-12,4.4H857.4A18.52,18.52,0,0,1,838.9,477.6Z"/><path class="cls-17" d="M936.3,448h0a7.92,7.92,0,0,1-7.9-7.9V300.3a7.92,7.92,0,0,1,7.9-7.9h0a7.92,7.92,0,0,1,7.9,7.9V440.1A8,8,0,0,1,936.3,448Z"/><polygon class="cls-1" points="260.5 936 223 871.5 260.5 807 335.5 807 373 871.5 335.5 936 260.5 936"/><polygon class="cls-3" points="233.6 889.6 260.5 936 278.2 936 321.7 892.7 276 847.1 233.6 889.6"/><circle class="cls-15" cx="297.7" cy="871.2" r="32.3"/><path class="cls-19" d="M783.8,514.7a31.6,31.6,0,0,1,22.4,54l-98.7,98.7a31.68,31.68,0,0,1-44.8-44.8l98.7-98.7a31.71,31.71,0,0,1,22.4-9.2m0-15a46.39,46.39,0,0,0-33,13.6L652.1,612a46.9,46.9,0,0,0,0,66h0a46.84,46.84,0,0,0,66,0l98.7-98.7a46.9,46.9,0,0,0,0-66h0a46.81,46.81,0,0,0-33-13.6Z"/><path class="cls-19" d="M746.4,401a31.6,31.6,0,0,1,0,63.2H606.8a31.6,31.6,0,0,1,0-63.2H746.4m0-15H606.8a46.71,46.71,0,0,0-46.6,46.6h0a46.71,46.71,0,0,0,46.6,46.6H746.4A46.71,46.71,0,0,0,793,432.6h0A46.65,46.65,0,0,0,746.4,386Z"/><path class="cls-19" d="M897.5,552.1a31.6,31.6,0,0,1,31.6,31.6V723.3a31.6,31.6,0,0,1-63.2,0V583.7a31.54,31.54,0,0,1,31.6-31.6m0-15h0a46.71,46.71,0,0,0-46.6,46.6V723.3a46.71,46.71,0,0,0,46.6,46.6h0a46.71,46.71,0,0,0,46.6-46.6V583.7a46.78,46.78,0,0,0-46.6-46.6Z"/><path class="cls-12" d="M1019.1,533.7c154.4,50.2,266,195.2,266,366.3"/><line class="cls-14" x1="760" y1="927.5" x2="547" y2="927.5"/><line class="cls-14" x1="804" y1="1004.5" x2="570" y2="1004.5"/><line class="cls-14" x1="898" y1="1081.5" x2="614" y2="1081.5"/><line class="cls-14" x1="898" y1="1158.5" x2="680" y2="1158.5"/><line class="cls-14" x1="898" y1="1235.5" x2="779" y2="1235.5"/><path class="cls-3" d="M802.6,929a101.82,101.82,0,0,0,68.1,68.3l63.4-63.1-68.4-68.4Z"/><circle class="cls-2" cx="900" cy="900" r="48.4"/><circle class="cls-17" cx="914" cy="886" r="15"/><path class="cls-20" d="M900,1001.6a101.59,101.59,0,0,1-74-171.2L569.6,1086.8l143.6,143.6L971,972.5A100.64,100.64,0,0,1,900,1001.6Z"/><circle class="cls-2" cx="1321.7" cy="1321.7" r="110.2"/></svg>