<?xml version="1.0" encoding="utf-8"?>
<!-- Generator: Adobe Illustrator 19.2.1, SVG Export Plug-In . SVG Version: 6.00 Build 0)  -->
<svg version="1.1" id="Layer_1" xmlns="http://www.w3.org/2000/svg" xmlns:xlink="http://www.w3.org/1999/xlink" x="0px" y="0px"
	 viewBox="0 0 1800 1800" style="enable-background:new 0 0 1800 1800;" xml:space="preserve">
<style type="text/css">
	.st0{fill:#444444;}
	.st1{opacity:0.5;fill:#161616;enable-background:new    ;}
	.st2{fill:#EA217D;}
	.st3{fill:none;stroke:#EA217D;stroke-width:20.313;stroke-linecap:round;stroke-linejoin:round;}
	
		.st4{fill:none;stroke:#EA217D;stroke-width:20.313;stroke-linecap:round;stroke-linejoin:round;stroke-dasharray:92.9757,92.9757,92.9757,92.9757;}
	
		.st5{fill:none;stroke:#EA217D;stroke-width:20.313;stroke-linecap:round;stroke-linejoin:round;stroke-dasharray:92.9757,92.9757,92.9757,92.9757,92.9757,92.9757;}
	.st6{fill:none;stroke:#EA217D;stroke-width:20.3131;stroke-linecap:round;stroke-linejoin:round;stroke-miterlimit:10;}
	.st7{fill:none;stroke:#24BDE0;stroke-width:20.313;stroke-linecap:round;stroke-linejoin:round;}
	
		.st8{fill:none;stroke:#24BDE0;stroke-width:20.313;stroke-linecap:round;stroke-linejoin:round;stroke-dasharray:91.5952,91.5952,91.5952,91.5952;}
	
		.st9{fill:none;stroke:#24BDE0;stroke-width:20.313;stroke-linecap:round;stroke-linejoin:round;stroke-dasharray:91.5952,91.5952,91.5952,91.5952,91.5952,91.5952;}
	.st10{fill:none;stroke:#24BDE0;stroke-width:20.3131;stroke-linecap:round;stroke-linejoin:round;stroke-miterlimit:10;}
	.st11{fill:#FFFFFF;}
	.st12{fill:#24BDE0;stroke:#161616;stroke-width:19.4019;stroke-linecap:round;stroke-linejoin:round;stroke-miterlimit:10;}
	.st13{fill:#FFFFFF;stroke:#161616;stroke-width:19.4019;stroke-linecap:round;stroke-linejoin:round;stroke-miterlimit:10;}
	.st14{fill:#EA217D;stroke:#161616;stroke-width:19.4019;stroke-linecap:round;stroke-linejoin:round;stroke-miterlimit:10;}
	.st15{fill:#444444;stroke:#161616;stroke-width:19.4019;stroke-linecap:round;stroke-linejoin:round;stroke-miterlimit:10;}
	.st16{fill:#24BDE0;stroke:#161616;stroke-width:16.2;stroke-linecap:round;stroke-linejoin:round;stroke-miterlimit:10;}
	.st17{fill:#FFFFFF;stroke:#444444;stroke-width:19.4019;stroke-linecap:round;stroke-linejoin:round;stroke-miterlimit:10;}
</style>
<circle class="st0" cx="900" cy="900" r="800"/>
<path class="st1" d="M900,1700c220.9,0,420.9-89.5,565.7-234.3L334.3,334.3C189.5,479.1,100,679.1,100,900
	C100,1341.8,458.2,1700,900,1700z"/>
<circle class="st2" cx="900" cy="900" r="706.8"/>
<g>
	<g>
		<g>
			<path class="st3" d="M366.7,1433.3c-11.9-11.9-23.3-24-34.2-36.5"/>
			<path class="st4" d="M275.7,1323.3c-62.4-91.8-102.3-194.4-119.7-299.9"/>
			<path class="st5" d="M149.8,977.4c-17.2-168.1,21.9-340.9,117.3-487.7"/>
			<path class="st3" d="M293.6,451.5c9.9-13.3,20.2-26.4,31.1-39.1"/>
		</g>
	</g>
	<path class="st6" d="M1433.3,1433.3c-294.5,294.5-772,294.5-1066.6,0"/>
	<g>
		<g>
			<path class="st7" d="M1433.3,366.7c11.9,11.9,23.3,24,34.2,36.5"/>
			<path class="st8" d="M1523.6,475.5c61.6,90.3,101.5,191.1,119.5,294.9"/>
			<path class="st9" d="M1649.5,815.8c18.5,165.6-17.8,336.2-108.8,482.4"/>
			<path class="st7" d="M1515.3,1336.2c-9.6,13.5-19.7,26.8-30.3,39.8"/>
		</g>
	</g>
	<path class="st10" d="M366.7,366.7c294.5-294.5,772-294.5,1066.6,0"/>
</g>
<circle class="st12" cx="454" cy="784" r="49"/>
<circle class="st13" cx="599" cy="784" r="34"/>
<rect x="502.9" y="746.9" transform="matrix(0.7071 -0.7071 0.7071 0.7071 -393.7173 605.4645)" class="st14" width="62.2" height="62.2"/>
<path class="st11" d="M951.2,631.6L951.2,631.6c-59.5,0-108.2-48.7-108.2-108.2V414.5c0-59.5,48.7-108.2,108.2-108.2l0,0
	c59.5,0,108.2,48.7,108.2,108.2v108.9C1059.4,582.9,1010.7,631.6,951.2,631.6z"/>
<path class="st0" d="M414.8,1414c126.6,119,297.3,192.9,485.2,192.9s358.6-73.9,485.2-192.9H414.8z"/>
<path class="st11" d="M808.4,1463.7L808.4,1463.7c-38.9,0-70.8-31.9-70.8-70.8v-268.1c0-38.9,31.9-70.8,70.8-70.8l0,0
	c38.9,0,70.8,31.9,70.8,70.8v268.1C879.2,1431.9,847.3,1463.7,808.4,1463.7z"/>
<path class="st11" d="M855.4,802.1L855.4,802.1c-27.5,27.5-72.6,27.5-100.1,0L565.7,612.5c-27.5-27.5-27.5-72.6,0-100.1l0,0
	c27.5-27.5,72.6-27.5,100.1,0L855.4,702C882.9,729.5,882.9,774.5,855.4,802.1z"/>
<path class="st11" d="M1384.3,740.9L1384.3,740.9c0,38.9-31.9,70.8-70.8,70.8h-268.1c-38.9,0-70.8-31.9-70.8-70.8l0,0
	c0-38.9,31.9-70.8,70.8-70.8h268.1C1352.5,670.1,1384.3,701.9,1384.3,740.9z"/>
<path class="st11" d="M1094.1,1463.7L1094.1,1463.7c-38.9,0-70.8-31.9-70.8-70.8v-268.1c0-38.9,31.9-70.8,70.8-70.8l0,0
	c38.9,0,70.8,31.9,70.8,70.8v268.1C1164.9,1431.9,1133,1463.7,1094.1,1463.7z"/>
<path class="st11" d="M1164.9,1238.5H737.6V787.3c0-64.5,52.8-117.3,117.3-117.3h192.8c64.5,0,117.3,52.8,117.3,117.3L1164.9,1238.5
	L1164.9,1238.5z"/>
<rect x="882.9" y="731.4" transform="matrix(0.7071 -0.7071 0.7071 0.7071 -273.9533 875.6078)" class="st13" width="74.1" height="74.1"/>
<rect x="799.5" y="724.5" transform="matrix(0.7071 -0.7071 0.7071 0.7071 -300.0794 830.5985)" class="st14" width="106.1" height="106.1"/>
<polygon class="st15" points="598.1,895.7 430,895.7 386.8,795.6 641.3,795.6 "/>
<rect x="945.4" y="754.6" transform="matrix(0.7071 -0.7071 0.7071 0.7071 -269.4862 920.4843)" class="st16" width="61.9" height="61.9"/>
<polygon class="st15" points="984.1,895.7 815.9,895.7 772.8,795.6 1027.2,795.6 "/>
<circle class="st14" cx="1208.7" cy="789.7" r="39.7"/>
<circle class="st12" cx="1294.2" cy="770.8" r="68.2"/>
<circle class="st13" cx="1367.3" cy="782.3" r="36.3"/>
<polygon class="st15" points="1370,895.7 1201.9,895.7 1158.7,795.6 1413.2,795.6 "/>
<path class="st0" d="M1626.1,1017c6.6-38,10.1-77.1,10.1-117H163.8c0,39.9,3.5,79,10.1,117H1626.1z"/>
<rect x="386.8" y="953.6" class="st17" width="254.5" height="126"/>
<rect x="772.8" y="953.6" class="st17" width="254.5" height="126"/>
<rect x="1158.7" y="953.6" class="st17" width="254.5" height="126"/>
<circle class="st0" cx="514" cy="1017" r="27"/>
<g>
	<circle class="st0" cx="867" cy="1017" r="27"/>
	<circle class="st0" cx="933" cy="1017" r="27"/>
</g>
<g>
	<circle class="st0" cx="1220" cy="1017" r="27"/>
	<circle class="st0" cx="1286" cy="1017" r="27"/>
	<circle class="st0" cx="1352" cy="1017" r="27"/>
</g>
</svg>
