<svg id="Layer_1" data-name="Layer 1" xmlns="http://www.w3.org/2000/svg" viewBox="0 0 1800 1800"><defs><style>.cls-1{fill:#444;}.cls-2{fill:#161616;}.cls-10,.cls-11,.cls-13,.cls-15,.cls-16,.cls-3,.cls-4,.cls-5,.cls-6,.cls-7,.cls-8,.cls-9{fill:none;stroke-linecap:round;stroke-linejoin:round;}.cls-15,.cls-3,.cls-4,.cls-5,.cls-6{stroke:#ea217d;}.cls-3,.cls-4,.cls-5,.cls-7,.cls-8,.cls-9{stroke-width:20.31px;}.cls-4{stroke-dasharray:92.98 92.98 92.98 92.98;}.cls-5{stroke-dasharray:92.98 92.98 92.98 92.98 92.98 92.98;}.cls-10,.cls-6{stroke-width:20.31px;}.cls-10,.cls-7,.cls-8,.cls-9{stroke:#24bde0;}.cls-8{stroke-dasharray:91.6 91.6 91.6 91.6;}.cls-9{stroke-dasharray:91.6 91.6 91.6 91.6 91.6 91.6;}.cls-11,.cls-13,.cls-16{stroke:#fff;}.cls-11{stroke-width:20px;}.cls-12{fill:#ea217d;}.cls-13{stroke-width:15px;}.cls-14{fill:#24bde0;}.cls-15{stroke-width:25px;}.cls-16{stroke-width:90px;}.cls-17{fill:#fff;}</style></defs><title>GO Hackathon Icon</title><circle class="cls-1" cx="900" cy="900" r="800"/><path class="cls-2" d="M900,1700c220.9,0,420.9-89.5,565.7-234.3L334.3,334.3C189.5,479.1,100,679.1,100,900,100,1341.8,458.2,1700,900,1700Z"/><path class="cls-3" d="M366.7,1433.3c-11.9-11.9-23.3-24-34.2-36.5"/><path class="cls-4" d="M275.7,1323.3A750.23,750.23,0,0,1,156,1023.4"/><path class="cls-5" d="M149.8,977.4c-17.2-168.1,21.9-340.9,117.3-487.7"/><path class="cls-3" d="M293.6,451.5c9.9-13.3,20.2-26.4,31.1-39.1"/><path class="cls-6" d="M1433.3,1433.3c-294.5,294.5-772,294.5-1066.6,0"/><path class="cls-7" d="M1433.3,366.7c11.9,11.9,23.3,24,34.2,36.5"/><path class="cls-8" d="M1523.6,475.5A751,751,0,0,1,1643,770.4"/><path class="cls-9" d="M1649.5,815.8c18.5,165.6-17.8,336.2-108.8,482.4"/><path class="cls-7" d="M1515.3,1336.2q-14.4,20.25-30.3,39.8"/><path class="cls-10" d="M366.7,366.7c294.5-294.5,772-294.5,1066.6,0"/><path class="cls-11" d="M1235.4,691.2A393,393,0,0,1,1295,900"/><path class="cls-11" d="M509.6,839.7c29-189.6,192.8-334.8,390.4-334.8A393.21,393.21,0,0,1,1111.1,566"/><path class="cls-11" d="M1493.2,900c0,328-265.6,593.8-593.2,593.8S306.8,1228,306.8,900,572.4,306.2,900,306.2"/><circle class="cls-12" cx="900.4" cy="305.8" r="58.5"/><path class="cls-13" d="M900.4,264.6a41.1,41.1,0,0,1,41.1,41.1"/><circle class="cls-14" cx="1493.4" cy="899.8" r="38.6"/><line class="cls-15" x1="986" y1="1027.5" x2="1363" y2="1027.5"/><line class="cls-15" x1="986" y1="1104.5" x2="1341" y2="1104.5"/><line class="cls-15" x1="986" y1="1181.5" x2="1297" y2="1181.5"/><line class="cls-15" x1="986" y1="1258.5" x2="1231" y2="1258.5"/><line class="cls-15" x1="986" y1="1335.5" x2="1132" y2="1335.5"/><line class="cls-15" x1="900" y1="1412.5" x2="978" y2="1412.5"/><line class="cls-16" x1="900" y1="900" x2="1345.6" y2="454.4"/><line class="cls-16" x1="900" y1="900" x2="900" y2="1318"/><line class="cls-15" x1="900" y1="902.5" x2="432" y2="902.5"/><circle class="cls-12" cx="900.4" cy="899.8" r="33.9"/><path class="cls-12" d="M1338.5,617.6L1182.3,461.4a18.59,18.59,0,0,1,0-26.2l48.2-48.2a18.77,18.77,0,0,1,11.6-5.4l22.3-1.8a18.59,18.59,0,0,1,14.6,5.4L1414.7,521a18.82,18.82,0,0,1,5.4,14.6l-1.8,22.3a18.77,18.77,0,0,1-5.4,11.6l-48.2,48.2A18.5,18.5,0,0,1,1338.5,617.6Z"/><path class="cls-17" d="M1386.5,527.9h0a7.79,7.79,0,0,1-11.1,0L1276.5,429a7.79,7.79,0,0,1,0-11.1h0a7.79,7.79,0,0,1,11.1,0l98.9,98.9A8,8,0,0,1,1386.5,527.9Z"/></svg>