<svg id="Layer_1" data-name="Layer 1" xmlns="http://www.w3.org/2000/svg" viewBox="0 0 1800 1800"><defs><style>.cls-1{fill:#444;}.cls-2{fill:#161616;}.cls-10,.cls-3,.cls-4,.cls-5,.cls-6,.cls-7,.cls-8,.cls-9{fill:none;stroke-linecap:round;stroke-linejoin:round;}.cls-3,.cls-4,.cls-5,.cls-6{stroke:#ea217d;}.cls-3,.cls-4,.cls-5,.cls-7,.cls-8,.cls-9{stroke-width:20.31px;}.cls-4{stroke-dasharray:92.98 92.98 92.98 92.98;}.cls-5{stroke-dasharray:92.98 92.98 92.98 92.98 92.98 92.98;}.cls-10,.cls-6{stroke-width:20.31px;}.cls-10,.cls-7,.cls-8,.cls-9{stroke:#24bde0;}.cls-8{stroke-dasharray:91.6 91.6 91.6 91.6;}.cls-9{stroke-dasharray:91.6 91.6 91.6 91.6 91.6 91.6;}.cls-11{fill:#9fa1a3;}.cls-12{fill:#e2e2e2;}.cls-13{fill:#6d6d6d;}.cls-14{fill:#b7b7b7;}.cls-15{fill:#726565;}.cls-16{fill:#282828;opacity:0.45;}.cls-16,.cls-17{isolation:isolate;}.cls-17,.cls-18{fill:#fff;}.cls-17{opacity:0.85;}</style></defs><title>GO Talks Icon</title><circle class="cls-1" cx="900" cy="900" r="800"/><circle class="cls-2" cx="900" cy="900" r="706.8"/><path class="cls-3" d="M366.7,1433.3c-11.9-11.9-23.3-24-34.2-36.5"/><path class="cls-4" d="M275.7,1323.3A750.23,750.23,0,0,1,156,1023.4"/><path class="cls-5" d="M149.8,977.4c-17.2-168.1,21.9-340.9,117.3-487.7"/><path class="cls-3" d="M293.6,451.5c9.9-13.3,20.2-26.4,31.1-39.1"/><path class="cls-6" d="M1433.3,1433.3c-294.5,294.5-772,294.5-1066.6,0"/><path class="cls-7" d="M1433.3,366.7c11.9,11.9,23.3,24,34.2,36.5"/><path class="cls-8" d="M1523.6,475.5a750.55,750.55,0,0,1,119.5,294.9"/><path class="cls-9" d="M1649.5,815.8c18.5,165.6-17.8,336.2-108.8,482.4"/><path class="cls-7" d="M1515.3,1336.2q-14.4,20.25-30.3,39.8"/><path class="cls-10" d="M366.7,366.7c294.5-294.5,772-294.5,1066.6,0"/><path class="cls-11" d="M252.9,1184.5a708.86,708.86,0,0,0,362.6,362.6c6.7,3,12.5-5.6,7.4-10.8L263.7,1177.1C258.5,1172,249.9,1177.8,252.9,1184.5Z"/><path class="cls-11" d="M226.2,722.1a6.61,6.61,0,0,0-11.1,3A704.89,704.89,0,0,0,193.2,900c0,17.6.7,35,1.9,52.2l652.6,652.6c17.2,1.3,34.6,1.9,52.2,1.9a704.89,704.89,0,0,0,174.9-21.9,6.62,6.62,0,0,0,3-11.1Z"/><path class="cls-11" d="M260.1,599.6l940.3,940.3a710.25,710.25,0,0,0,158.7-102.5L362.7,441A704.27,704.27,0,0,0,260.1,599.6Z"/><path class="cls-12" d="M1547.1,615.5a708.86,708.86,0,0,0-362.6-362.6c-6.7-3-12.5,5.6-7.4,10.8l359.2,359.2C1541.5,628,1550.1,622.2,1547.1,615.5Z"/><path class="cls-12" d="M1582,1086.1A709.43,709.43,0,0,0,1606.8,900c0-17.6-.7-35-1.9-52.2L952.3,195.2c-17.2-1.3-34.6-1.9-52.2-1.9a704.89,704.89,0,0,0-174.9,21.9,6.62,6.62,0,0,0-3,11.1Z"/><path class="cls-12" d="M440.9,362.7l996.4,996.4a703.3,703.3,0,0,0,102.5-158.7L599.5,260.1A708.77,708.77,0,0,0,440.9,362.7Z"/><path class="cls-13" d="M440.9,362.7a709,709,0,0,0-188,252.8c-3,6.7,5.6,12.5,10.8,7.4L482.4,404.2Z"/><path class="cls-14" d="M613,273.5l9.8-9.8c5.2-5.2-.7-13.7-7.4-10.8-5.3,2.3-10.6,4.7-15.8,7.2Z"/><path class="cls-14" d="M1573.8,722.1L1317.7,978.2l130.6,130.6,156.6-156.6c1.3-17.2,1.9-34.6,1.9-52.2a704.9,704.9,0,0,0-21.9-174.9A6.58,6.58,0,0,0,1573.8,722.1Z"/><path class="cls-15" d="M351.8,691.2L195.2,847.8c-1.3,17.2-1.9,34.6-1.9,52.2a704.9,704.9,0,0,0,21.9,174.9,6.62,6.62,0,0,0,11.1,3L482.4,821.8Z"/><rect class="cls-13" x="488.27" y="807.69" width="405.9" height="184.7" transform="translate(-433.97 752.38) rotate(-45)"/><path class="cls-15" d="M351.8,1108.8l-91.6,91.6a710.26,710.26,0,0,0,102.5,158.7l119.7-119.7Z"/><rect class="cls-14" x="905.9" y="389.96" width="405.9" height="184.7" transform="translate(-16.27 925.34) rotate(-45)"/><path class="cls-14" d="M1030.6,273.5l47.3-47.3a6.61,6.61,0,0,0-3-11.1,699.56,699.56,0,0,0-122.7-19.9Z"/><rect class="cls-13" x="488.22" y="390" width="405.9" height="184.7" transform="translate(-138.63 630.01) rotate(-45)"/><path class="cls-14" d="M1448.2,691.2l91.6-91.6a710.26,710.26,0,0,0-102.5-158.7L1317.6,560.6Z"/><rect class="cls-13" x="905.87" y="807.73" width="405.9" height="184.7" transform="translate(-311.69 1047.68) rotate(-45)"/><rect class="cls-13" x="905.83" y="1225.33" width="405.9" height="184.7" transform="translate(-606.99 1169.96) rotate(-45)"/><path class="cls-15" d="M769.4,1526.5l-47.3,47.3a6.61,6.61,0,0,0,3,11.1,699.56,699.56,0,0,0,122.7,19.9Z"/><polygon class="cls-16" points="1169.4 1126.4 1299.7 1257.3 1317.6 1239.4 1187 1108.8 1169.4 1126.4"/><path class="cls-14" d="M1317.6,1395.9l41.5,41.5a709,709,0,0,0,188-252.8c3-6.7-5.6-12.5-10.8-7.4Z"/><path class="cls-14" d="M1187,1526.5l-9.8,9.8c-5.2,5.2.7,13.7,7.4,10.8,5.3-2.3,10.6-4.7,15.8-7.2Z"/><rect class="cls-15" x="488.23" y="1225.29" width="405.9" height="184.7" transform="translate(-729.27 874.67) rotate(-45)"/><rect class="cls-16" x="1231.02" y="255.28" width="24.9" height="184.7" transform="translate(118.39 981.09) rotate(-45)"/><polygon class="cls-16" points="751.4 291.6 882.1 422 900 404.1 769.4 273.5 751.4 291.6"/><polygon class="cls-16" points="1169.4 708.8 1299.7 839.7 1317.6 821.8 1187 691.2 1169.4 708.8"/><rect class="cls-16" x="812.73" y="673.57" width="24.9" height="184.7" transform="translate(-299.9 807.82) rotate(-45)"/><path class="cls-16" d="M422.6,378.9l42.5,42.5,17.3-17.3-41.5-41.5C434.7,368,428.6,373.4,422.6,378.9Z"/><polygon class="cls-16" points="334.1 708.8 464.8 839.4 482.4 821.8 351.8 691.2 334.1 708.8"/><rect class="cls-16" x="813.48" y="1090.51" width="24.8" height="184.7" transform="translate(-594.51 930.44) rotate(-45)"/><rect class="cls-16" x="396.61" y="1090.18" width="23.9" height="184.7" transform="translate(-716.51 635.25) rotate(-45)"/><path class="cls-17" d="M988,702.3h0a12.61,12.61,0,0,1-17.8,0L811.8,544a12.61,12.61,0,0,1,0-17.8h0a12.61,12.61,0,0,1,17.8,0L987.9,684.5A12.52,12.52,0,0,1,988,702.3Z"/><path class="cls-18" d="M1409,702.3h0a12.61,12.61,0,0,1-17.8,0L1232.8,544a12.61,12.61,0,0,1,0-17.8h0a12.61,12.61,0,0,1,17.8,0l158.3,158.3A12.52,12.52,0,0,1,1409,702.3Z"/><path class="cls-18" d="M1025.8,319.1h0a12.61,12.61,0,0,1-17.8,0l-67.4-67.4a12.61,12.61,0,0,1,0-17.8h0a12.61,12.61,0,0,1,17.8,0l67.4,67.4A12.61,12.61,0,0,1,1025.8,319.1Z"/><path class="cls-17" d="M645.2,359.6h0a12.61,12.61,0,0,1-17.8,0l-42.2-42.2a12.61,12.61,0,0,1,0-17.8h0a12.61,12.61,0,0,1,17.8,0l42.2,42.2A12.61,12.61,0,0,1,645.2,359.6Z"/><path class="cls-17" d="M1479.6,1195.2h0a12.61,12.61,0,0,1-17.8,0l-158.3-158.3a12.61,12.61,0,0,1,0-17.8h0a12.61,12.61,0,0,1,17.8,0l158.3,158.3A12.61,12.61,0,0,1,1479.6,1195.2Z"/><path class="cls-17" d="M1027.9,1159.8h0a12.61,12.61,0,0,1-17.8,0L851.8,1001.5a12.61,12.61,0,0,1,0-17.8h0a12.61,12.61,0,0,1,17.8,0L1027.9,1142A12.61,12.61,0,0,1,1027.9,1159.8Z"/><path class="cls-17" d="M635.7,768.5h0a12.61,12.61,0,0,1-17.8,0L459.6,610.2a12.61,12.61,0,0,1,0-17.8h0a12.61,12.61,0,0,1,17.8,0L635.7,750.7A12.61,12.61,0,0,1,635.7,768.5Z"/><path class="cls-17" d="M1004.3,1553.8h0a12.61,12.61,0,0,1-17.8,0L828.2,1395.5a12.61,12.61,0,0,1,0-17.8h0a12.61,12.61,0,0,1,17.8,0L1004.3,1536A12.61,12.61,0,0,1,1004.3,1553.8Z"/><path class="cls-17" d="M612.1,1162.5h0a12.61,12.61,0,0,1-17.8,0L436,1004.2a12.61,12.61,0,0,1,0-17.8h0a12.61,12.61,0,0,1,17.8,0l158.3,158.3A12.61,12.61,0,0,1,612.1,1162.5Z"/></svg>