<?xml version="1.0" encoding="utf-8"?>
<!-- Generator: Adobe Illustrator 19.0.0, SVG Export Plug-In . SVG Version: 6.00 Build 0)  -->
<svg version="1.1" id="Capa_1" xmlns="http://www.w3.org/2000/svg" xmlns:xlink="http://www.w3.org/1999/xlink" x="0px" y="0px"
	 viewBox="5 -5 510 510" style="enable-background:new 5 -5 510 510;" xml:space="preserve">
<style type="text/css">
	.st0{fill:#24BDE0;}
</style>
<g>
	<g id="post-facebook">
		<path class="st0" d="M464-5H56C28-5,5,18,5,46v408c0,28,23,51,51,51h408c28,0,51-23,51-51V46C515,18,492-5,464-5z M438.5,46v76.5
			h-51c-15.3,0-25.5,10.2-25.5,25.5v51h76.5v76.5H362V454h-76.5V275.5h-51V199h51v-63.8c0-48.4,40.8-89.2,89.2-89.2H438.5z"/>
	</g>
</g>
</svg>
