<svg xmlns="http://www.w3.org/2000/svg" viewBox="39.326 49.107 220.151 51.678">
  <defs>
    <style>
      .cls-1 {
        fill: #b70aa7;
      }

      .cls-2 {
        fill: #e74c3c;
      }

      .cls-3 {
        fill: #464646;
      }

      .cls-4 {
        fill: #50ece0;
      }

      .cls-5 {
        fill: #fff;
      }
    </style>
  </defs>
  <g id="game-on-hackathon-logo" transform="translate(207.024 -16.7)">
    <path id="path" class="cls-1" d="M208.335,594.251V594.2l-.034.017Z" transform="translate(-323.336 -476.905)"/>
    <g id="group" transform="translate(-102.871 96.792)">
      <g id="group-2" data-name="group">
        <path id="path-2" data-name="path" class="cls-2" d="M289.46,495.65a1.092,1.092,0,0,1-1.115,1.115,1.072,1.072,0,0,1-1.115-1.115v-8.3h-5.765v8.3a1.135,1.135,0,0,1-1.115,1.115,1.121,1.121,0,0,1-1.15-1.115V477.515a1.121,1.121,0,0,1,1.15-1.115,1.16,1.16,0,0,1,1.115,1.115v7.549h5.765v-7.549a1.092,1.092,0,0,1,1.115-1.115,1.113,1.113,0,0,1,1.115,1.115Z" transform="translate(-279.2 -476.108)"/>
        <path id="path-3" data-name="path" class="cls-2" d="M394.43,497.384a1.041,1.041,0,1,1-2.025.481c-.292-1.218-.583-2.454-.875-3.689h-4.8c-.309,1.235-.618,2.471-.909,3.689a1.1,1.1,0,0,1-1.27.789,1.037,1.037,0,0,1-.755-1.27c.172-.738.36-1.475.532-2.23.429-1.767.841-3.534,1.27-5.3q1.235-5.173,2.522-10.363a1.065,1.065,0,0,1,1-.789,1.081,1.081,0,0,1,1.029.789c.155.755.343,1.493.532,2.248.429,1.767.841,3.534,1.27,5.3C392.766,490.5,393.607,493.953,394.43,497.384Zm-7.189-5.473h3.706c-.618-2.556-1.235-5.113-1.853-7.686C388.494,486.781,387.859,489.355,387.242,491.911Z" transform="translate(-365.829 -478.014)"/>
        <path id="path-4" data-name="path" class="cls-2" d="M491.918,476.622a4.977,4.977,0,0,1,3.672-1.424,4.16,4.16,0,0,1,2.985,1.2,6.286,6.286,0,0,1,1.493,4.135,1.106,1.106,0,0,1-1.149,1.1,1.072,1.072,0,0,1-1.115-1.115,4.187,4.187,0,0,0-.824-2.522,1.76,1.76,0,0,0-1.373-.532,2.635,2.635,0,0,0-1.973.686,2.932,2.932,0,0,0-.652,1.887q.026,5.765,0,11.512a2.869,2.869,0,0,0,.515,1.081,2.189,2.189,0,0,0,2.076.909,2.366,2.366,0,0,0,1.836-.7,2.521,2.521,0,0,0,.446-1.733,1.112,1.112,0,0,1,.926-1.287,1.138,1.138,0,0,1,1.287.927,4.61,4.61,0,0,1-.909,3.517,4.4,4.4,0,0,1-3.5,1.544,4.6,4.6,0,0,1-4.907-3.929c-.034-.052-.052-1.047-.052-3.02V480.1A5.364,5.364,0,0,1,491.918,476.622Z" transform="translate(-454.413 -475.112)"/>
        <path id="path-5" data-name="path" class="cls-2" d="M601.417,495.2a1.112,1.112,0,0,1-.618,1.458,1.093,1.093,0,0,1-1.493-.566l-.515-1.132c-1.132-2.659-2.282-5.3-3.414-7.961-.618.978-1.235,1.939-1.836,2.882a1.494,1.494,0,0,1-.412.395v5.353a1.092,1.092,0,0,1-1.115,1.115,1.072,1.072,0,0,1-1.115-1.115V477.515a1.092,1.092,0,0,1,1.115-1.115,1.113,1.113,0,0,1,1.115,1.115v8.819c.24-.395.48-.789.738-1.167,1.767-2.745,3.517-5.507,5.284-8.253a1.184,1.184,0,0,1,1.561-.343,1.139,1.139,0,0,1,.36,1.561q-2.162,3.346-4.272,6.674c.1.12.189.24.275.36.171.429.36.841.532,1.27Q599.513,490.837,601.417,495.2Z" transform="translate(-537.421 -476.108)"/>
        <path id="path-6" data-name="path" class="cls-2" d="M709.231,497.384a1.041,1.041,0,1,1-2.025.481c-.292-1.218-.583-2.454-.875-3.689h-4.8c-.309,1.235-.617,2.471-.909,3.689a1.1,1.1,0,0,1-1.27.789,1.037,1.037,0,0,1-.755-1.27c.172-.738.36-1.475.532-2.23.429-1.767.841-3.534,1.27-5.3q1.236-5.173,2.522-10.363a1.065,1.065,0,0,1,1-.789,1.081,1.081,0,0,1,1.029.789c.154.755.343,1.493.532,2.248.429,1.767.841,3.534,1.27,5.3Q707.978,492.237,709.231,497.384Zm-7.189-5.473h3.706c-.618-2.556-1.235-5.113-1.853-7.686C703.277,486.781,702.66,489.355,702.042,491.911Z" transform="translate(-626.619 -478.014)"/>
        <path id="path-7" data-name="path" class="cls-2" d="M814.11,475.4a1.15,1.15,0,0,1,0,2.3h-2.78V494.77a1.143,1.143,0,0,1-1.115,1.149,1.108,1.108,0,0,1-1.149-1.149V477.7h-2.951A1.1,1.1,0,0,1,805,476.549a1.142,1.142,0,0,1,1.115-1.15Z" transform="translate(-714.787 -475.28)"/>
        <path id="path-8" data-name="path" class="cls-2" d="M918.96,495.65a1.092,1.092,0,0,1-1.115,1.115,1.072,1.072,0,0,1-1.115-1.115v-8.3h-5.765v8.3a1.135,1.135,0,0,1-1.115,1.115,1.121,1.121,0,0,1-1.15-1.115V477.515a1.121,1.121,0,0,1,1.15-1.115,1.159,1.159,0,0,1,1.115,1.115v7.549h5.765v-7.549a1.092,1.092,0,0,1,1.115-1.115,1.113,1.113,0,0,1,1.115,1.115Z" transform="translate(-800.695 -476.108)"/>
        <path id="path-9" data-name="path" class="cls-2" d="M1017.6,474.7a4.815,4.815,0,0,1,4.8,4.735v11.187a4.778,4.778,0,0,1-4.8,4.718,4.7,4.7,0,0,1-4.8-4.718V479.436A4.77,4.77,0,0,1,1017.6,474.7Zm2.539,15.922V479.436a2.54,2.54,0,0,0-5.078,0v11.187a2.54,2.54,0,0,0,5.078,0Z" transform="translate(-886.935 -474.7)"/>
        <path id="path-10" data-name="path" class="cls-2" d="M1122.984,476.4a1.113,1.113,0,0,1,1.115,1.115v18.118a1.092,1.092,0,0,1-1.115,1.115,1.072,1.072,0,0,1-1.116-1.115v-.12c-.258-.532-.515-1.081-.755-1.63-1.733-3.86-3.449-7.721-5.181-11.6V495.65a1.135,1.135,0,0,1-1.115,1.115,1.072,1.072,0,0,1-1.115-1.115V477.515a1.092,1.092,0,0,1,1.115-1.115,1.137,1.137,0,0,1,1.1.926c.24.566.48,1.132.737,1.681,1.75,3.878,3.483,7.755,5.233,11.633V477.515A1.067,1.067,0,0,1,1122.984,476.4Z" transform="translate(-970.526 -476.108)"/>
      </g>
    </g>
    <g id="group-3" data-name="group" transform="translate(-102.888 73.116)">
      <g id="group-4" data-name="group">
        <path id="path-11" data-name="path" class="cls-3" d="M279.117,344.489c0-4.409,3.38-7.789,8.7-7.789,4.547,0,7.137,2.591,7.137,4.409,0,1.424-.909,2.333-2.865,2.333-2.076,0-2.333-1.819-4.289-1.819a2.738,2.738,0,0,0-2.865,2.865v3.637a2.738,2.738,0,0,0,2.865,2.865,4.551,4.551,0,0,0,2.471-.772v-1.047H289.5a2.346,2.346,0,1,1,0-4.667h3.637a2.058,2.058,0,0,1,2.333,2.333v4.667c0,1.819-2.865,4.409-7.669,4.409-5.319,0-8.7-3.38-8.7-7.789v-3.637Z" transform="translate(-279.1 -336.7)"/>
        <path id="path-12" data-name="path" class="cls-3" d="M404.688,353.068c-.652,1.561-1.681,2.591-3.123,2.591a2.682,2.682,0,0,1-2.865-2.591,8.961,8.961,0,0,1,.652-2.333l4.152-10.912a4.871,4.871,0,0,1,9.093,0l4.152,10.912a8.96,8.96,0,0,1,.652,2.333,2.672,2.672,0,0,1-2.865,2.591c-1.424,0-2.471-1.047-3.123-2.591l-.652-1.561h-5.456Zm4.941-6.228-1.441-3.912h-.257l-1.424,3.895h3.123Z" transform="translate(-378.181 -336.7)"/>
        <path id="path-13" data-name="path" class="cls-3" d="M538.094,351.249l-1.956-4.941h-.257l-1.167,6.76a2.861,2.861,0,0,1-2.985,2.591A2.5,2.5,0,0,1,529,353.068a14.273,14.273,0,0,1,.257-2.333l1.819-10.912a3.544,3.544,0,0,1,3.775-3.123c1.956,0,3.123,1.167,3.895,3.123l2.334,6.074h.257l2.333-6.074c.755-1.956,1.956-3.123,3.895-3.123a3.533,3.533,0,0,1,3.775,3.123l1.819,10.912a14.569,14.569,0,0,1,.257,2.333,2.488,2.488,0,0,1-2.728,2.591,2.874,2.874,0,0,1-2.985-2.591l-1.167-6.76h-.257l-1.956,4.941c-.652,1.681-1.561,2.591-3.123,2.591C539.655,353.84,538.711,352.931,538.094,351.249Z" transform="translate(-486.125 -336.7)"/>
        <path id="path-14" data-name="path" class="cls-3" d="M708.013,344.9v1.561h4.941a2.346,2.346,0,1,1,0,4.667h-4.941v1.561h7.275a2.6,2.6,0,1,1,0,5.181H705.165a2.541,2.541,0,0,1-2.865-2.591V342.291c0-1.561,1.047-2.591,2.865-2.591h9.865a2.541,2.541,0,0,1,2.865,2.591c0,1.561-1.047,2.591-2.865,2.591h-7.017Z" transform="translate(-629.691 -339.185)"/>
        <path id="path-15" data-name="path" class="cls-3" d="M898.4,348.127c0,4.409-3.38,7.789-8.7,7.789s-8.7-3.38-8.7-7.789v-3.637c0-4.409,3.38-7.789,8.7-7.789s8.7,3.38,8.7,7.789Zm-5.851-3.637c0-2.076-1.3-3.38-2.865-3.38s-2.865,1.3-2.865,3.38v3.637c0,2.076,1.3,3.38,2.865,3.38s2.865-1.3,2.865-3.38Z" transform="translate(-777.731 -336.7)"/>
        <path id="path-16" data-name="path" class="cls-3" d="M1022.131,348.422v5.971c0,1.561-1.047,2.591-2.865,2.591a2.542,2.542,0,0,1-2.865-2.591v-13.5a2.55,2.55,0,0,1,2.865-2.591c1.561,0,2.471.909,3.637,2.591l4.409,5.971h.257V340.89c0-1.561,1.047-2.591,2.865-2.591a2.541,2.541,0,0,1,2.865,2.591v13.5a2.55,2.55,0,0,1-2.865,2.591c-1.561,0-2.471-.909-3.637-2.591l-4.41-5.971Z" transform="translate(-889.9 -338.025)"/>
        <path id="path-17" data-name="path" class="cls-3" d="M1154.509,339.565l-.515,7.017a2.591,2.591,0,1,1-5.181,0l-.515-7.017a3.116,3.116,0,0,1,6.211,0Zm-.137,13.365a3,3,0,1,1-2.985-2.728A2.733,2.733,0,0,1,1154.372,352.931Z" transform="translate(-999.168 -336.7)"/>
      </g>
    </g>
    <path id="path-18" data-name="path" class="cls-1" d="M206.534,594.251V594.2l-.034.017Z" transform="translate(-321.844 -476.905)"/>
    <g id="group-5" data-name="group" transform="translate(-167.698 65.807)">
      <circle id="ellipse" cx="6.564" cy="6.564" r="6.564" transform="translate(12.522 0.655)"/>
      <path id="path-19" data-name="path" d="M-10,323.049c0,.685.929,1.243,2.143,1.243s2.162-.558,2.162-1.243v-4.53a8.492,8.492,0,0,1-2.084.245A9.458,9.458,0,0,1-10,318.5Z" transform="translate(26.827 -305.048)"/>
      <path id="path-20" data-name="path" class="cls-1" d="M-144.335,199.48a2.325,2.325,0,0,0-.333-.46,2.165,2.165,0,0,0-.509-.421c-.518-.313-6.633-3.874-11.554-6.731a7.13,7.13,0,0,0,1-3.649,7.227,7.227,0,0,0-7.22-7.22,7.227,7.227,0,0,0-7.22,7.22,7.263,7.263,0,0,0,.978,3.639c-5.087,2.964-11.466,6.672-11.593,6.75a3.045,3.045,0,0,0-.489.411,1.751,1.751,0,0,0-.372.46,2.226,2.226,0,0,0-.352,1.2v19.38a2.7,2.7,0,0,0,1.242,2.064l17.443,10.174.342.186.323-.186,17.414-10.165a2.373,2.373,0,0,0,1.184-2.064V200.693A2.574,2.574,0,0,0-144.335,199.48Zm-18.617-17.1a5.837,5.837,0,0,1,5.841,5.841,5.837,5.837,0,0,1-5.841,5.841,5.837,5.837,0,0,1-5.841-5.841A5.837,5.837,0,0,1-162.952,182.379Zm1.5,13.462v2.925c0,.528-.685.949-1.624.949s-1.6-.421-1.6-.949v-2.945c0-.333.215-.5.567-.44a5.763,5.763,0,0,0,1.135.166,4.853,4.853,0,0,0,1.008-.147C-161.622,195.342-161.455,195.508-161.455,195.841Z" transform="translate(182 -181)"/>
      <path id="path-21" data-name="path" d="M-150.173,426.3c0,.734-.558.978-1.291.558l-14.215-8.463A2.737,2.737,0,0,1-167,416.3v-16.24c0-.734.607-.978,1.34-.558l14.2,8.169a2.744,2.744,0,0,1,1.291,2.094Z" transform="translate(168.467 -377.943)"/>
      <path id="path-22" data-name="path" class="cls-4" d="M20,426.3c0,.734.6.978,1.331.558l14.2-8.463a2.714,2.714,0,0,0,1.3-2.094v-16.24c0-.734-.567-.978-1.3-.558l-14.215,8.169A2.768,2.768,0,0,0,20,409.768Z" transform="translate(-0.238 -377.943)"/>
      <g id="group-6" data-name="group" transform="translate(3.248 28.59)">
        <g id="group-7" data-name="group">
          <path id="path-23" data-name="path" class="cls-5" d="M-144.349,482.005c0,.743-.421.949-1.164.45a2.511,2.511,0,0,1-1.164-2.025v-3.59l-.108-.069a.891.891,0,0,1-1.057-.1,2.381,2.381,0,0,1-.959-1.761.807.807,0,0,1,.421-.7l1.692-.9s.421-.274,1.164.225a2.511,2.511,0,0,1,1.164,2.025v6.447Z" transform="translate(148.8 -473.233)"/>
          <path id="path-24" data-name="path" class="cls-5" d="M-89.746,520.2c0,.744-.421.949-1.164.45a2.511,2.511,0,0,1-1.164-2.025v-.744l-2.661-1.79a2.511,2.511,0,0,1-1.164-2.025,1.264,1.264,0,0,1,.421-.949l1.908-1.673c.646-.567,1.164-.831,2.338-.049a3.546,3.546,0,0,1,1.487,2.612v2.974a2.46,2.46,0,0,1,1.057,1.957c0,.743-.421.949-1.057.518Zm-2.328-4.794v-1.487l-.108-.068-.9.753v.127Z" transform="translate(101.075 -507.221)"/>
        </g>
      </g>
      <path id="path-25" data-name="path" class="cls-4" d="M15.561,209.087h1.4A5.07,5.07,0,0,0,12,204v1.4A3.685,3.685,0,0,1,15.561,209.087Z" transform="translate(6.979 -201.75)"/>
      <g id="group-8" data-name="group" transform="translate(22.501 29.237)">
        <g id="group-9" data-name="group" transform="translate(3.228)">
          <path id="path-26" data-name="path" d="M83.25,503.87a.561.561,0,0,1-.274.44l-1.683.969c-.157.088-.294.039-.294-.117V503.5a.6.6,0,0,1,.3-.44l1.663-.959c.157-.088.284-.039.284.117Z" transform="translate(-81 -499.884)"/>
          <path id="path-27" data-name="path" d="M121.34,481.68a.539.539,0,0,1-.254.44l-1.683.959c-.157.088-.3.039-.3-.117V481.3a.612.612,0,0,1,.313-.44l1.653-.959c.157-.088.274-.039.274.117Z" transform="translate(-115.373 -479.856)"/>
        </g>
        <path id="path-28" data-name="path" d="M77.16,579.78a.611.611,0,0,1-.313.44l-1.663.959c-.157.088-.284.039-.284-.117V579.4a.55.55,0,0,1,.264-.44L76.847,578c.157-.088.3-.039.3.117v1.663Z" transform="translate(-72.268 -568.358)"/>
        <path id="path-29" data-name="path" d="M50.25,566.27a.561.561,0,0,1-.274.44l-1.683.969c-.157.088-.294.039-.294-.117V565.9a.6.6,0,0,1,.3-.44l1.663-.959c.157-.088.284-.039.284.117Z" transform="translate(-48 -556.179)"/>
        <path id="path-30" data-name="path" d="M105.16,563.58a.585.585,0,0,1-.294.44l-1.673.959c-.157.088-.293.039-.293-.117V563.2a.573.573,0,0,1,.284-.44l1.673-.959c.157-.088.293-.039.293.117v1.663Z" transform="translate(-97.529 -553.743)"/>
        <path id="path-31" data-name="path" d="M132.25,547.679a.575.575,0,0,1-.264.44l-1.683.959c-.157.088-.3.039-.3-.117V547.3a.6.6,0,0,1,.3-.44l1.663-.959c.157-.088.284-.039.284.117Z" transform="translate(-121.978 -539.398)"/>
        <path id="path-32" data-name="path" d="M154.25,506.18a.539.539,0,0,1-.254.44l-1.693.959c-.157.088-.3.039-.3-.118V505.8a.626.626,0,0,1,.323-.44l1.653-.959c.156-.088.274-.039.274.117Z" transform="translate(-141.825 -501.959)"/>
      </g>
      <path id="path-33" data-name="path" class="cls-5" d="M-40.947,354.252a7.916,7.916,0,0,1-4.128-1.056,2.933,2.933,0,0,1-1.624-2.377,3.291,3.291,0,0,1,2.24-2.72.653.653,0,0,1,.9.558v.978c0,.91,1.145,1.624,2.593,1.624,1.467,0,2.612-.714,2.612-1.624v-.988a.617.617,0,0,1,.861-.567c1.389.665,2.279,1.663,2.279,2.74a2.933,2.933,0,0,1-1.624,2.377A7.861,7.861,0,0,1-40.947,354.252Z" transform="translate(59.937 -331.682)"/>
    </g>
  </g>
</svg>
