<svg xmlns="http://www.w3.org/2000/svg" viewBox="1389.326 49.107 37.949 51.489">
  <defs>
    <style>
      .cls-1 {
        fill: #b70aa7;
      }

      .cls-2 {
        fill: #50ece0;
      }

      .cls-3 {
        fill: #fff;
      }
    </style>
  </defs>
  <g id="group" transform="translate(1389.326 49.107)">
    <circle id="ellipse" cx="6.564" cy="6.564" r="6.564" transform="translate(12.522 0.655)"/>
    <path id="path" d="M-10,323.049c0,.685.929,1.243,2.143,1.243s2.162-.558,2.162-1.243v-4.53a8.492,8.492,0,0,1-2.084.245A9.458,9.458,0,0,1-10,318.5Z" transform="translate(26.827 -305.048)"/>
    <path id="path-2" data-name="path" class="cls-1" d="M-144.335,199.48a2.325,2.325,0,0,0-.333-.46,2.165,2.165,0,0,0-.509-.421c-.518-.313-6.633-3.874-11.554-6.731a7.13,7.13,0,0,0,1-3.649,7.227,7.227,0,0,0-7.22-7.22,7.227,7.227,0,0,0-7.22,7.22,7.263,7.263,0,0,0,.978,3.639c-5.087,2.964-11.466,6.672-11.593,6.75a3.045,3.045,0,0,0-.489.411,1.751,1.751,0,0,0-.372.46,2.226,2.226,0,0,0-.352,1.2v19.38a2.7,2.7,0,0,0,1.242,2.064l17.443,10.174.342.186.323-.186,17.414-10.165a2.373,2.373,0,0,0,1.184-2.064V200.693A2.574,2.574,0,0,0-144.335,199.48Zm-18.617-17.1a5.837,5.837,0,0,1,5.841,5.841,5.837,5.837,0,0,1-5.841,5.841,5.837,5.837,0,0,1-5.841-5.841A5.837,5.837,0,0,1-162.952,182.379Zm1.5,13.462v2.925c0,.528-.685.949-1.624.949s-1.6-.421-1.6-.949v-2.945c0-.333.215-.5.567-.44a5.763,5.763,0,0,0,1.135.166,4.853,4.853,0,0,0,1.008-.147C-161.622,195.342-161.455,195.508-161.455,195.841Z" transform="translate(182 -181)"/>
    <path id="path-3" data-name="path" d="M-150.173,426.3c0,.734-.558.978-1.291.558l-14.215-8.463A2.737,2.737,0,0,1-167,416.3v-16.24c0-.734.607-.978,1.34-.558l14.2,8.169a2.744,2.744,0,0,1,1.291,2.094Z" transform="translate(168.467 -377.943)"/>
    <path id="path-4" data-name="path" class="cls-2" d="M20,426.3c0,.734.6.978,1.331.558l14.2-8.463a2.714,2.714,0,0,0,1.3-2.094v-16.24c0-.734-.567-.978-1.3-.558l-14.215,8.169A2.768,2.768,0,0,0,20,409.768Z" transform="translate(-0.238 -377.943)"/>
    <g id="group-2" data-name="group" transform="translate(3.248 28.59)">
      <g id="group-3" data-name="group">
        <path id="path-5" data-name="path" class="cls-3" d="M-144.349,482.005c0,.743-.421.949-1.164.45a2.511,2.511,0,0,1-1.164-2.025v-3.59l-.108-.069a.891.891,0,0,1-1.057-.1,2.381,2.381,0,0,1-.959-1.761.807.807,0,0,1,.421-.7l1.692-.9s.421-.274,1.164.225a2.511,2.511,0,0,1,1.164,2.025v6.447Z" transform="translate(148.8 -473.233)"/>
        <path id="path-6" data-name="path" class="cls-3" d="M-89.746,520.2c0,.744-.421.949-1.164.45a2.511,2.511,0,0,1-1.164-2.025v-.744l-2.661-1.79a2.511,2.511,0,0,1-1.164-2.025,1.264,1.264,0,0,1,.421-.949l1.908-1.673c.646-.567,1.164-.831,2.338-.049a3.546,3.546,0,0,1,1.487,2.612v2.974a2.46,2.46,0,0,1,1.057,1.957c0,.743-.421.949-1.057.518Zm-2.328-4.794v-1.487l-.108-.068-.9.753v.127Z" transform="translate(101.075 -507.221)"/>
      </g>
    </g>
    <path id="path-7" data-name="path" class="cls-2" d="M15.561,209.087h1.4A5.07,5.07,0,0,0,12,204v1.4A3.685,3.685,0,0,1,15.561,209.087Z" transform="translate(6.979 -201.75)"/>
    <g id="group-4" data-name="group" transform="translate(22.501 29.237)">
      <g id="group-5" data-name="group" transform="translate(3.228)">
        <path id="path-8" data-name="path" d="M83.25,503.87a.561.561,0,0,1-.274.44l-1.683.969c-.157.088-.294.039-.294-.117V503.5a.6.6,0,0,1,.3-.44l1.663-.959c.157-.088.284-.039.284.117Z" transform="translate(-81 -499.884)"/>
        <path id="path-9" data-name="path" d="M121.34,481.68a.539.539,0,0,1-.254.44l-1.683.959c-.157.088-.3.039-.3-.117V481.3a.612.612,0,0,1,.313-.44l1.653-.959c.157-.088.274-.039.274.117Z" transform="translate(-115.373 -479.856)"/>
      </g>
      <path id="path-10" data-name="path" d="M77.16,579.78a.611.611,0,0,1-.313.44l-1.663.959c-.157.088-.284.039-.284-.117V579.4a.55.55,0,0,1,.264-.44L76.847,578c.157-.088.3-.039.3.117v1.663Z" transform="translate(-72.268 -568.358)"/>
      <path id="path-11" data-name="path" d="M50.25,566.27a.561.561,0,0,1-.274.44l-1.683.969c-.157.088-.294.039-.294-.117V565.9a.6.6,0,0,1,.3-.44l1.663-.959c.157-.088.284-.039.284.117Z" transform="translate(-48 -556.179)"/>
      <path id="path-12" data-name="path" d="M105.16,563.58a.585.585,0,0,1-.294.44l-1.673.959c-.157.088-.293.039-.293-.117V563.2a.573.573,0,0,1,.284-.44l1.673-.959c.157-.088.293-.039.293.117v1.663Z" transform="translate(-97.529 -553.743)"/>
      <path id="path-13" data-name="path" d="M132.25,547.679a.575.575,0,0,1-.264.44l-1.683.959c-.157.088-.3.039-.3-.117V547.3a.6.6,0,0,1,.3-.44l1.663-.959c.157-.088.284-.039.284.117Z" transform="translate(-121.978 -539.398)"/>
      <path id="path-14" data-name="path" d="M154.25,506.18a.539.539,0,0,1-.254.44l-1.693.959c-.157.088-.3.039-.3-.118V505.8a.626.626,0,0,1,.323-.44l1.653-.959c.156-.088.274-.039.274.117Z" transform="translate(-141.825 -501.959)"/>
    </g>
    <path id="path-15" data-name="path" class="cls-3" d="M-40.947,354.252a7.916,7.916,0,0,1-4.128-1.056,2.933,2.933,0,0,1-1.624-2.377,3.291,3.291,0,0,1,2.24-2.72.653.653,0,0,1,.9.558v.978c0,.91,1.145,1.624,2.593,1.624,1.467,0,2.612-.714,2.612-1.624v-.988a.617.617,0,0,1,.861-.567c1.389.665,2.279,1.663,2.279,2.74a2.933,2.933,0,0,1-1.624,2.377A7.861,7.861,0,0,1-40.947,354.252Z" transform="translate(59.937 -331.682)"/>
  </g>
</svg>
