<svg xmlns="http://www.w3.org/2000/svg" xmlns:xlink="http://www.w3.org/1999/xlink" viewBox="2228 48.778 25 25">
  <defs>
    <style>
      .cls-1 {
        clip-path: url(#clip-path);
      }

      .cls-2 {
        fill: #a0041e;
      }

      .cls-3 {
        fill: #8e9193;
      }

      .cls-4 {
        fill: #dd2e44;
      }

      .cls-5 {
        fill: #fff;
      }

      .cls-6 {
        fill: none;
      }

      .cls-6, .cls-7 {
        stroke: #fff;
        stroke-width: 1px;
      }

      .cls-7 {
        fill: rgba(0,0,0,0);
      }
    </style>
    <clipPath id="clip-path">
      <path id="path18" d="M0-45H25v24.725H0Z" transform="translate(0 45)"/>
    </clipPath>
  </defs>
  <g id="_1f3b2" data-name="1f3b2" transform="translate(2228 48.778)">
    <g id="g12">
      <g id="g14" class="cls-1">
        <g id="g20" transform="translate(2.778 7.555)">
          <path id="path22" class="cls-2" d="M0,0V.094C0,.065.008.036.01.008Z"/>
        </g>
        <g id="g24" transform="translate(2.778 7.649)">
          <path id="path26" class="cls-3" d="M-5.45-10.623a1.907,1.907,0,0,1-1.61-1.545c-.2-.854.2-1.545.889-1.545A1.908,1.908,0,0,1-4.56-12.169c.2.853-.2,1.545-.89,1.545m-3.877-5.151a1.907,1.907,0,0,1-1.61-1.545c-.2-.853.2-1.545.889-1.545a1.907,1.907,0,0,1,1.61,1.545c.2.854-.2,1.545-.889,1.545m6.092-.249a1.369,1.369,0,0,1-.286-.168l-8.349-6.626a.975.975,0,0,1-.392-.761v8.405c0,1.4.759,1.706.759,1.706l8.037,6.249A1.468,1.468,0,0,0-3.1-7a.751.751,0,0,1-.135-.415v-8.609Z" transform="translate(12.262 23.579)"/>
        </g>
        <g id="g28" transform="translate(13.056 7.591)">
          <path id="path30" class="cls-3" d="M-6.544-4.2A1.688,1.688,0,0,1-7.957-2.818c-.606,0-.955-.62-.78-1.385A1.688,1.688,0,0,1-7.324-5.588c.606,0,.956.62.781,1.385M-8.672-.7A1.738,1.738,0,0,1-10.1.76c-.613,0-.967-.652-.79-1.457A1.741,1.741,0,0,1-9.461-2.154c.614,0,.967.652.79,1.457m-2.457,3.62c-.168.78-.777,1.413-1.36,1.413s-.918-.633-.75-1.413.777-1.413,1.359-1.413.919.633.751,1.413M-5.95-8.568l-8.4,6.683a1.346,1.346,0,0,1-.23.145V6.893a.753.753,0,0,1-.139.422,1.464,1.464,0,0,0,.381-.225C-13.078,6.106-6.3.84-6.3.84s.739-.3.739-1.706V-9.329a.976.976,0,0,1-.393.761" transform="translate(14.724 9.329)"/>
        </g>
        <g id="g32" transform="translate(22.218 7.555)">
          <path id="path34" class="cls-4" d="M0,0C0,.008,0,.019,0,.031V-.006Z" transform="translate(0 0.006)"/>
        </g>
        <g id="g36" transform="translate(2.778 0.029)">
          <path id="path38" class="cls-3" d="M-8.056-4.857a1.851,1.851,0,0,1,2.025,1.6,1.851,1.851,0,0,1-2.025,1.6,1.851,1.851,0,0,1-2.025-1.6,1.851,1.851,0,0,1,2.025-1.6m8.983.878-8.435-6.487a1.6,1.6,0,0,0-1.9,0l-8.321,6.545a.985.985,0,0,0-.382.675c0,.029-.01.057-.01.086a.975.975,0,0,0,.392.761l8.349,6.626a1.369,1.369,0,0,0,.286.168V13a.751.751,0,0,0,.135.415.672.672,0,0,0,.56.326.671.671,0,0,0,.556-.319A.753.753,0,0,0-7.708,13V4.371a1.346,1.346,0,0,0,.23-.145L.927-2.457a.975.975,0,0,0,.392-.761c0-.011,0-.022,0-.033a.977.977,0,0,0-.388-.728" transform="translate(18.125 10.781)"/>
        </g>
        <g id="g40" transform="translate(10.822 5.953)">
          <path id="path42" class="cls-5" d="M-1.62-2.628A1.851,1.851,0,0,0,.405-4.23a1.851,1.851,0,0,0-2.025-1.6,1.851,1.851,0,0,0-2.025,1.6,1.851,1.851,0,0,0,2.025,1.6" transform="translate(3.645 5.832)"/>
        </g>
        <g id="g44" transform="translate(18.997 11.332)">
          <path id="path46" class="cls-5" d="M-1.166,0A1.688,1.688,0,0,0-2.579,1.385c-.175.766.174,1.385.78,1.385A1.688,1.688,0,0,0-.386,1.385C-.211.62-.56,0-1.166,0" transform="translate(2.624)"/>
        </g>
        <g id="g48" transform="translate(16.841 14.766)">
          <path id="path50" class="cls-5" d="M-1.181,0A1.739,1.739,0,0,0-2.613,1.457c-.176.8.176,1.457.79,1.457A1.739,1.739,0,0,0-.391,1.457C-.214.652-.567,0-1.181,0" transform="translate(2.658)"/>
        </g>
        <g id="g52" transform="translate(14.498 18.43)">
          <path id="path54" class="cls-5" d="M-1.122,0C-1.7,0-2.313.633-2.481,1.413s.168,1.413.75,1.413,1.192-.633,1.36-1.413S-.539,0-1.122,0" transform="translate(2.524)"/>
        </g>
        <g id="g56" transform="translate(4.051 12.363)">
          <path id="path58" class="cls-5" d="M-.752,0c-.69,0-1.088.692-.889,1.545A1.907,1.907,0,0,0-.031,3.09c.69,0,1.088-.692.889-1.545A1.907,1.907,0,0,0-.752,0" transform="translate(1.693)"/>
        </g>
        <g id="g60" transform="translate(7.928 17.514)">
          <path id="path62" class="cls-5" d="M-.753,0c-.69,0-1.088.692-.89,1.545A1.909,1.909,0,0,0-.031,3.091c.69,0,1.088-.692.889-1.545A1.907,1.907,0,0,0-.753,0" transform="translate(1.693)"/>
        </g>
      </g>
      <line id="line-1" class="cls-6" x2="10.714" y2="8.159" transform="translate(1.786 7.5)"/>
      <line id="line-2" class="cls-6" x1="10" y2="8.159" transform="translate(12.5 7.5)"/>
      <path id="line-3" class="cls-7" d="M0,9.341V0" transform="translate(12.5 15.659)"/>
    </g>
  </g>
</svg>
