<svg xmlns="http://www.w3.org/2000/svg" viewBox="2548 49 25 25">
  <defs>
    <style>
      .cls-1 {
        fill: #878a8c;
      }
    </style>
  </defs>
  <g id="User" transform="translate(2547 47.798)">
    <g id="Layer_1" transform="translate(1 1.202)">
      <path id="path" class="cls-1" d="M17.176,19.545c-1.1-.592-.515-1.7,0-2.219a11.84,11.84,0,0,0,1.471-2.959,2.65,2.65,0,0,0,1.618-2.219c.588-1.923-.882-2.219-.882-2.219s1.176-3.181.221-5.622C18.353,1.127,13.279-.057,12.4,2.9h0C6.368,1.57,7.618,9.929,7.618,9.929s-1.471.3-.882,2.219a2.65,2.65,0,0,0,1.618,2.219,11.84,11.84,0,0,0,1.471,2.959c.515.518,1.1,1.627,0,2.219C7.618,20.729,1,21.024,1,26.2H26C26,21.024,19.382,20.729,17.176,19.545Z" transform="translate(-1 -1.202)"/>
    </g>
  </g>
</svg>
