<?xml version="1.0" encoding="utf-8"?>
<!-- Generator: Adobe Illustrator 19.0.0, SVG Export Plug-In . SVG Version: 6.00 Build 0)  -->
<svg version="1.1" id="Layer_1" xmlns="http://www.w3.org/2000/svg" xmlns:xlink="http://www.w3.org/1999/xlink" x="0px" y="0px"
	 viewBox="-1019 1410 960 182" style="enable-background:new -1019 1410 960 182;" xml:space="preserve">
<style type="text/css">
	.st0{fill:#24BDE0;}
</style>
<g>
	<path class="st0" d="M-912.3,1531.2l-5.6-13.1h-25.5l-5.6,13.1h-14.4l26.2-60.7h13.1l26.2,60.7H-912.3z M-930.6,1488.5l-7.7,17.6
		h15.2L-930.6,1488.5z"/>
	<path class="st0" d="M-866.6,1519.2c6.7,0,12.1-2.6,16.3-7.9l8.7,8.9c-6.9,7.8-15,11.6-24.3,11.6s-17-3-23.1-8.9
		c-6-5.9-9.1-13.3-9.1-22.3s3.1-16.5,9.2-22.5c6.2-6,13.7-9,22.6-9c9.9,0,18.3,3.8,25,11.4l-8.4,9.5c-4.3-5.3-9.6-8-16-8
		c-5.1,0-9.4,1.7-13.1,5c-3.6,3.3-5.4,7.8-5.4,13.5s1.7,10.2,5.1,13.6C-875.6,1517.4-871.5,1519.2-866.6,1519.2z"/>
	<path class="st0" d="M-832.8,1470.5h13.5v24.9l23-24.9h16.7l-24.1,26.8c2.1,2.9,5.9,8.3,11.5,16.2c5.6,7.9,9.8,13.8,12.6,17.7
		h-15.8l-17.8-24l-6.1,6.8v17.2h-13.5L-832.8,1470.5L-832.8,1470.5z"/>
	<path class="st0" d="M-770.7,1531.2v-60.6h13.5v48.6h25.9v12.1L-770.7,1531.2L-770.7,1531.2z"/>
	<path class="st0" d="M-678,1470.5v12.1h-30.2v12.5h27.2v11.5h-27.2v12.6h31.2v12h-44.7v-60.7H-678z"/>
	<path class="st0" d="M-623,1470.5h13.5v60.7H-623l-28.9-38v38h-13.5v-60.7h12.7l29.8,39L-623,1470.5L-623,1470.5z"/>
	<path class="st0" d="M-536.9,1461.3h12.3l-36.5,79.5h-12.2L-536.9,1461.3z"/>
	<path class="st0" d="M-448.8,1531.2l-5.6-13.1h-25.4l-5.6,13.1h-14.4l26.2-60.7h13.1l26.2,60.7H-448.8z M-467.1,1488.5l-7.6,17.6
		h15.2L-467.1,1488.5z"/>
	<path class="st0" d="M-410.5,1509.2l15.4-38.6h14.7l-24.4,60.7h-11.5l-24.4-60.7h14.7L-410.5,1509.2z"/>
	<path class="st0" d="M-328.3,1470.5v12.1h-30.2v12.5h27.2v11.5h-27.2v12.6h31.2v12H-372v-60.7H-328.3z"/>
	<path class="st0" d="M-273.3,1470.5h13.5v60.7h-13.5l-28.9-38v38h-13.5v-60.7h12.7l29.8,39L-273.3,1470.5L-273.3,1470.5z"/>
	<path class="st0" d="M-229.5,1515.4c2.3,2.8,5.3,4.2,9.1,4.2s6.8-1.4,9.1-4.2c2.2-2.8,3.3-6.6,3.3-11.5v-33.4h13.5v33.9
		c0,8.8-2.4,15.5-7.3,20.3c-4.9,4.7-11.1,7.1-18.7,7.1c-7.6,0-13.8-2.4-18.7-7.1s-7.3-11.5-7.3-20.2v-34h13.5v33.5
		C-232.9,1508.8-231.8,1512.7-229.5,1515.4z"/>
	<path class="st0" d="M-137.4,1470.5v12.1h-30.2v12.5h27.2v11.5h-27.2v12.6h31.2v12h-44.7v-60.7H-137.4z"/>
</g>
</svg>
