<?xml version="1.0" encoding="utf-8"?>
<!-- Generator: Adobe Illustrator 19.0.0, SVG Export Plug-In . SVG Version: 6.00 Build 0)  -->
<svg version="1.1" id="Layer_1" xmlns="http://www.w3.org/2000/svg" xmlns:xlink="http://www.w3.org/1999/xlink" x="0px" y="0px"
	 viewBox="262 -262 1024 1024" style="enable-background:new 262 -262 1024 1024;" xml:space="preserve">
<style type="text/css">
	.st0{fill:#24BDE0;}
	.st1{fill:#1F1F1F;}
	.st2{font-family:'CenturyGothic';}
	.st3{font-size:193.6621px;}
	.st4{letter-spacing:-8;}
	.st5{font-family:'CenturyGothic-Italic';}
	.st6{font-size:49.2845px;}
</style>
<g>
	<path class="st0" d="M457.6-48.5c103-59.8,206.1-119.4,309.1-179.3C871-168.7,975.3-109.4,1079.6-50.2c-25.8,15-51.5,30-77.3,44.9
		C924-49.7,845.7-94.2,767.6-138.6c-51.6,29.9-103.2,59.8-154.7,89.8c26.4,15.3,52.9,30,79.3,45.1c51.8,29.4,103.5,58.8,155.2,88.2
		c-25.8,15.1-51.6,30-77.4,45C672.7,74.5,575.4,19.2,478.2-36C471.3-40.3,463.8-43.4,457.6-48.5z"/>
</g>
<g>
	<path class="st1" d="M612.9-48.8c51.5-29.9,103-59.9,154.7-89.8C845.8-94.2,924-49.7,1002.3-5.3c0,30,0,60,0,90
		C924,40.3,845.8-4.1,767.6-48.5c-25.4,14.6-50.6,29.5-76,44l0.6,0.8C665.8-18.9,639.3-33.6,612.9-48.8z"/>
	<path class="st1" d="M535.1,86.3c26,14.3,51.6,29.3,77.5,43.9c0,30.5-0.1,61,0,91.7c52.1,29.5,104.3,59.1,156.4,88.8
		c77.5-44.8,154.9-89.8,232.3-134.7c26,14.8,52,29.4,77.9,44.3c-103,60-206.3,119.5-309.5,179.4c-78.3-44.5-156.7-88.8-235-133.4
		C535.2,206.3,535.1,146.3,535.1,86.3z"/>
</g>
<g>
	<path class="st0" d="M1079.6-50.2L1079.6-50.2c0,30,0.1,60,0.1,90.2c-25.8,14.9-51.5,29.9-77.4,44.9c-0.1-30,0-60,0-90
		C1028-20.1,1053.8-35.1,1079.6-50.2z"/>
	<path class="st0" d="M847.3,84.5c0,30,0,60,0,90c-25.8,15-51.5,29.9-77.4,44.9c-0.1-30,0.1-59.9,0-89.9
		C795.7,114.5,821.6,99.7,847.3,84.5z"/>
	<path class="st0" d="M1079.4,220.2l0.2-0.1c0,30.1,0,60.3,0,90.3C976.5,370.3,873.2,430,770.2,489.9c-0.1-30.1-0.1-60.1-0.1-90.3
		C873,339.7,976.4,280.4,1079.4,220.2z"/>
</g>
<g>
	<path class="st0" d="M457.2-48.9l0.4,0.4c6.3,5.3,13.9,8.3,20.6,12.5c97.2,55.3,194.5,110.5,291.7,165.6c0.1,30-0.1,59.9,0,89.9
		c-52.4-29.8-104.9-59.5-157.3-89.3c-25.9-14.6-51.5-29.6-77.5-43.9c0,60,0.3,120-0.1,180.1c78.3,44.5,156.7,88.9,235,133.4
		c0,30.1,0,60.1,0.1,90.3c-104.4-59.1-208.7-118.5-313-177.7C457.1,191.9,456.9,71.5,457.2-48.9z"/>
</g>
<g>
	<g>
		<text transform="matrix(1 0 0 1 284.9195 665.6498)" class="st0 st2 st3 st4">Enso</text>
		<text transform="matrix(1 0 0 1 694.1006 665.6498)" class="st0 st2 st3 st4">Media</text>
	</g>
	<text transform="matrix(1 0 0 1 379.7149 727.851)" class="st0 st5 st6">Marketing Digital &amp; Social Media</text>
</g>
</svg>
