<?xml version="1.0" encoding="utf-8"?>
<!-- Generator: Adobe Illustrator 19.0.0, SVG Export Plug-In . SVG Version: 6.00 Build 0)  -->
<svg version="1.1" id="Capa_1" xmlns="http://www.w3.org/2000/svg" xmlns:xlink="http://www.w3.org/1999/xlink" x="0px" y="0px"
	 viewBox="0 0 500 500" style="enable-background:new 0 0 500 500;" xml:space="preserve">
<style type="text/css">
	.st0{fill:#24BDE0;}
	.st1{fill:#FFFFFF;}
</style>
<g>
	<path class="st0" d="M63.4,264.9c8.9-19.8,21.3-44.3,38.9-74.4c55.2-68.2,186.8-102.5,249.9-69.1c16,9.1,30,17.6,42.2,25.4
		c-1.3-5.3-2.7-10.7-4.3-16.4C363.8,34,338,12,338,12c-2.8-2.4-8.3-4.8-12.2-5.5c0,0-36.3-6-148.9,27.8s-140.3,59-140.3,59
		c-3,2.8-6.4,7.9-7.6,11.5c0,0-10.7,32.9,15.7,129.2C48,244.6,54.5,255,63.4,264.9z"/>
</g>
<g>
	<g>
		<path class="st1" d="M39.7,119.2l1.2,1l-1,1.1l9.3,8.1l1-1.1l1.2,1l-3.2,3.6l-1.2-1l1-1.1l-9.3-8.1l-1,1.1l-1.2-1L39.7,119.2z"/>
		<path class="st1" d="M59.4,121.2l-1.3,1.2l-4.4-4.5c-1.6-1.7-3.1-1.9-4.3-0.7c-0.6,0.6-0.9,1.4-0.9,2.2c0.1,0.9,0.4,1.7,1.1,2.4
			l4.4,4.5l-1.3,1.2l-7.7-7.9l1.3-1.2l1.3,1.3l0,0c-0.4-1.6,0-2.9,1.1-4c0.9-0.8,1.8-1.2,2.8-1.1s2,0.7,3,1.7L59.4,121.2z"/>
		<path class="st1" d="M68.7,112.4c2.6,3.1,2.3,5.9-0.7,8.4c-1.1,0.9-2.1,1.4-3.3,1.7l-1.1-1.4c1.4-0.2,2.5-0.7,3.4-1.4
			c2.1-1.7,2.2-3.7,0.4-5.9l-0.8-0.9l0,0c0.2,1.6-0.3,3-1.6,4c-1.1,0.9-2.2,1.2-3.5,0.9c-1.3-0.2-2.4-1-3.5-2.3
			c-1.2-1.5-1.8-2.9-1.8-4.3s0.6-2.6,1.8-3.6c1.2-0.9,2.4-1.2,3.7-0.7l0,0l-1-1.2l1.4-1.1L68.7,112.4z M64.7,110.3l-1-1.3
			c-0.6-0.7-1.3-1.1-2.1-1.2c-0.9-0.1-1.6,0.1-2.3,0.7c-0.8,0.7-1.3,1.5-1.2,2.5c0,1,0.5,2.1,1.4,3.2c0.8,1,1.6,1.5,2.5,1.7
			s1.8,0,2.5-0.6c0.8-0.6,1.2-1.4,1.2-2.3C65.7,112.1,65.4,111.2,64.7,110.3z"/>
		<path class="st1" d="M76.5,101.7l-6.4,4.5c0.7,1,1.5,1.6,2.4,1.8c0.9,0.2,1.8,0,2.7-0.7c1-0.7,1.7-1.7,2.1-3l1,1.4
			c-0.4,1.1-1.2,2.2-2.5,3.1s-2.6,1.2-3.9,0.9c-1.3-0.3-2.5-1.2-3.5-2.7c-1-1.4-1.4-2.8-1.2-4.3c0.2-1.4,0.9-2.6,2-3.4
			c1.2-0.8,2.4-1.1,3.5-0.8c1.2,0.3,2.3,1.1,3.2,2.5L76.5,101.7z M74.1,101.5c-0.6-0.8-1.2-1.3-2-1.5c-0.7-0.2-1.4,0-2.1,0.5
			s-1.1,1.1-1.2,2c-0.1,0.8,0,1.7,0.5,2.5L74.1,101.5z"/>
		<path class="st1" d="M89.4,99.5l-1.5,0.9l-3.3-5.3c-1.2-2-2.6-2.5-4-1.6c-0.8,0.5-1.2,1.1-1.3,2c-0.1,0.9,0.1,1.7,0.6,2.6l3.3,5.3
			l-1.5,0.9l-5.8-9.4l1.5-0.9l1,1.6l0,0c0-1.6,0.6-2.9,2-3.7c1-0.6,2-0.8,3-0.5s1.8,1.1,2.6,2.4L89.4,99.5z"/>
		<path class="st1" d="M86.2,85.4c-0.3,0.2-0.6,0.2-0.9,0.1s-0.5-0.3-0.7-0.5c-0.2-0.3-0.2-0.6-0.1-0.9s0.3-0.5,0.5-0.7
			c0.3-0.2,0.6-0.2,0.9-0.1s0.5,0.3,0.7,0.5c0.2,0.3,0.2,0.6,0.1,0.9C86.7,85.1,86.5,85.3,86.2,85.4z M93.8,97l-1.5,0.9l-5.5-9.6
			l1.5-0.9L93.8,97z"/>
		<path class="st1" d="M102.4,86.6l-6.9,3.7c0.6,1.1,1.3,1.8,2.2,2c0.9,0.3,1.8,0.2,2.8-0.3c1.1-0.6,1.9-1.5,2.5-2.7l0.8,1.5
			c-0.5,1.1-1.5,2-2.9,2.7s-2.7,0.9-4,0.4s-2.3-1.5-3.2-3.1c-0.8-1.5-1-3-0.7-4.4c0.4-1.4,1.2-2.5,2.4-3.1c1.3-0.7,2.5-0.8,3.6-0.3
			s2.1,1.4,2.9,2.9L102.4,86.6z M100.1,86.1c-0.5-0.9-1.1-1.5-1.8-1.8c-0.7-0.3-1.4-0.2-2.2,0.2c-0.7,0.4-1.2,1-1.5,1.8
			c-0.2,0.8-0.2,1.7,0.1,2.6L100.1,86.1z"/>
		<path class="st1" d="M108.3,79.1c-0.4-0.1-0.8,0-1.4,0.3c-0.7,0.3-1.1,0.9-1.2,1.8s0.1,1.8,0.6,2.9l2.5,5.1l-1.6,0.8l-4.8-9.9
			l1.6-0.8l1,2l0,0c-0.1-0.8,0-1.5,0.2-2.1c0.3-0.6,0.7-1.1,1.3-1.3c0.4-0.2,0.8-0.3,1-0.3L108.3,79.1z"/>
		<path class="st1" d="M110.1,70.1l-1.1,4.4l-1.2,0.6l0.7-4.2L110.1,70.1z M115.7,85.9l-1.6,0.7l-4.6-10l1.6-0.7L115.7,85.9z"/>
		<path class="st1" d="M126.2,81.2l-1.6,0.7l-0.7-1.6l0,0c-0.2,1.5-1,2.6-2.3,3.2c-1,0.4-1.9,0.5-2.7,0.2c-0.8-0.3-1.4-0.9-1.8-1.8
			c-0.8-1.9-0.2-3.5,1.9-4.8l2.9-1.7c-0.7-1.7-1.8-2.3-3.2-1.7c-1.2,0.5-2.1,1.4-2.8,2.7l-0.7-1.7c0.7-1.1,1.7-1.9,3-2.4
			c2.4-1,4.1-0.3,5.2,2.2L126.2,81.2z M122.3,76.8l-2.3,1.4c-0.7,0.4-1.2,0.9-1.5,1.3s-0.3,1,0,1.7c0.2,0.5,0.6,0.8,1.1,1
			s1,0.1,1.6-0.1c0.8-0.3,1.3-0.9,1.6-1.7c0.3-0.8,0.2-1.6-0.1-2.5L122.3,76.8z"/>
		<path class="st1" d="M141.4,69.8l-7.3,2.7c0.5,1.1,1.1,1.9,1.9,2.3c0.8,0.4,1.8,0.4,2.8,0c1.2-0.4,2.1-1.2,2.8-2.4l0.6,1.6
			c-0.7,1-1.7,1.8-3.2,2.3s-2.8,0.5-4-0.1s-2.1-1.8-2.7-3.5c-0.6-1.6-0.6-3.1-0.1-4.4c0.5-1.4,1.5-2.3,2.8-2.8
			c1.4-0.5,2.6-0.5,3.6,0.1c1.1,0.6,1.9,1.7,2.5,3.2L141.4,69.8z M139.2,69.1c-0.4-1-0.9-1.6-1.5-2c-0.7-0.4-1.4-0.4-2.2-0.1
			s-1.3,0.8-1.7,1.6c-0.3,0.8-0.4,1.6-0.2,2.6L139.2,69.1z"/>
		<path class="st1" d="M154.3,70.7l-1.7,0.6l-2-6c-0.8-2.2-1.9-3-3.6-2.5c-0.8,0.3-1.4,0.8-1.8,1.7c-0.3,0.8-0.3,1.7,0,2.7l2,6
			l-1.7,0.6l-3.6-10.4l1.7-0.6l0.6,1.7l0,0c0.3-1.6,1.3-2.6,2.7-3.2c1.1-0.4,2.1-0.3,3,0.2s1.5,1.5,2,2.9L154.3,70.7z"/>
	</g>
</g>
<g>
	<path class="st1" d="M64.4,157.5l-3.4-2.6c1-0.2,1.9-0.6,2.7-1.1s1.5-1.2,2.1-1.9c0.3-0.4,0.6-0.8,0.7-1.2c0.2-0.4,0.3-0.7,0.3-1.1
		c0-0.3,0-0.6-0.1-0.9c-0.1-0.3-0.3-0.5-0.5-0.6c-0.3-0.2-0.6-0.3-1-0.4c-0.4,0-0.8,0.1-1.2,0.2c-0.4,0.1-0.9,0.4-1.4,0.6
		c-0.5,0.3-1,0.6-1.6,0.9c-1.4,0.8-2.7,1.3-3.9,1.3s-2.3-0.3-3.3-1.1c-0.8-0.6-1.4-1.3-1.7-2c-0.3-0.8-0.5-1.6-0.4-2.4
		c0-0.8,0.3-1.7,0.6-2.5c0.4-0.9,0.9-1.7,1.5-2.5s1.2-1.5,1.8-2s1.1-1,1.7-1.4l3.2,2.4c-0.4,0.1-0.7,0.3-1.1,0.5
		c-0.4,0.2-0.7,0.4-1.1,0.7c-0.3,0.3-0.6,0.5-0.9,0.8c-0.3,0.3-0.5,0.6-0.8,0.9c-0.3,0.4-0.5,0.8-0.7,1.2s-0.3,0.7-0.3,1.1
		c0,0.3,0,0.6,0.1,0.9c0.1,0.3,0.3,0.5,0.5,0.7c0.3,0.2,0.5,0.3,0.8,0.3s0.6,0,1-0.1s0.8-0.3,1.2-0.5s0.9-0.5,1.5-0.8
		c0.7-0.4,1.4-0.8,2.1-1c0.7-0.3,1.3-0.4,1.9-0.5s1.3,0,1.9,0.1c0.6,0.2,1.2,0.5,1.8,1c0.9,0.7,1.5,1.4,1.8,2.1
		c0.3,0.8,0.5,1.6,0.4,2.4c-0.1,0.8-0.3,1.7-0.7,2.5c-0.4,0.9-0.9,1.7-1.5,2.5s-1.3,1.6-2,2.2C65.8,156.6,65.1,157.1,64.4,157.5z"/>
	<path class="st1" d="M65,132.9c-0.5,0.5-1.1,0.8-1.7,0.8s-1.2-0.2-1.6-0.6c-0.5-0.4-0.7-1-0.6-1.6c0-0.6,0.3-1.2,0.8-1.7
		s1.1-0.8,1.7-0.8s1.1,0.2,1.6,0.6c0.5,0.4,0.7,1,0.7,1.6C65.8,131.8,65.5,132.4,65,132.9z M77.9,142.5l-3,3.1L65,136l3-3.1
		L77.9,142.5z"/>
	<path class="st1" d="M79.6,140.3l-2.3-2.6c0.8-0.1,1.5-0.4,2.2-0.7s1.2-0.7,1.7-1.1c0.6-0.5,0.9-1,1.1-1.4s0.2-0.8-0.1-1.1
		c-0.2-0.2-0.4-0.3-0.7-0.3c-0.3,0-0.6,0-0.9,0.1s-0.7,0.2-1,0.4s-0.7,0.3-1,0.4c-0.5,0.2-1.1,0.4-1.5,0.4c-0.5,0.1-0.9,0.1-1.3,0.1
		c-0.4-0.1-0.8-0.2-1.2-0.4c-0.4-0.2-0.8-0.5-1.1-1c-0.5-0.6-0.8-1.2-0.9-1.8s-0.1-1.3,0.1-1.9c0.2-0.6,0.5-1.3,0.9-1.9
		s0.9-1.2,1.5-1.7c0.5-0.4,1-0.8,1.5-1.1s1.1-0.6,1.7-0.9l2.2,2.5c-0.6,0.1-1.2,0.3-1.8,0.6c-0.6,0.3-1.1,0.6-1.5,1
		c-0.2,0.2-0.4,0.4-0.5,0.6c-0.2,0.2-0.3,0.4-0.4,0.6c-0.1,0.2-0.1,0.4-0.1,0.6c0,0.2,0.1,0.3,0.2,0.5c0.2,0.2,0.4,0.3,0.6,0.3
		s0.5,0,0.8-0.1s0.6-0.2,0.9-0.3s0.6-0.3,0.9-0.4c0.6-0.2,1.1-0.4,1.6-0.5s1-0.2,1.4-0.2c0.5,0,0.9,0.1,1.3,0.3s0.8,0.5,1.2,1
		c0.5,0.6,0.9,1.3,1,1.9c0.1,0.7,0.1,1.3-0.1,2s-0.5,1.3-1,1.9c-0.5,0.6-1,1.2-1.6,1.8C82.1,139,80.9,139.8,79.6,140.3z"/>
	<path class="st1" d="M96.4,127c-0.3,0.6-1,1.3-2,2.1c-2.4,1.8-4.5,1.4-6.4-1.1l-3.8-5.1l-1.8,1.3l-1.9-2.5l1.8-1.3l-1.8-2.4
		l2.7-3.5l2.5,3.4l2.5-1.8l1.9,2.5l-2.5,1.8l3.3,4.5c0.9,1.2,1.7,1.4,2.7,0.7c0.4-0.3,0.7-0.6,0.9-1.1L96.4,127z"/>
	<path class="st1" d="M105.8,114.3l-7.6,4.8c1.2,1.6,2.8,1.8,4.8,0.5c1.3-0.8,2.2-1.8,2.8-3.1l1.6,2.6c-0.7,1.3-1.9,2.4-3.6,3.5
		c-1.9,1.2-3.7,1.6-5.4,1.2c-1.7-0.4-3.1-1.5-4.3-3.4c-1.2-1.9-1.6-3.8-1.2-5.7c0.4-1.8,1.4-3.3,3.1-4.3c1.7-1.1,3.3-1.4,4.9-1
		s2.9,1.5,4,3.2L105.8,114.3z M101.1,114.3c-1.1-1.7-2.3-2.1-3.6-1.2c-0.6,0.4-0.9,0.9-1,1.7c-0.1,0.7,0,1.5,0.4,2.3L101.1,114.3z"
		/>
	<path class="st1" d="M130.5,107.7l-3.8,1.9l-3.6-7c-0.9-1.8-2-2.3-3.3-1.7c-0.6,0.3-1,0.9-1.1,1.6s0,1.5,0.4,2.3l3.5,6.9l-3.8,2
		l-3.7-7.1c-0.9-1.7-2-2.3-3.3-1.6c-0.6,0.3-1,0.9-1.2,1.6c-0.1,0.7,0,1.5,0.5,2.4l3.5,6.8l-3.8,2l-6.3-12.3l3.8-2l1,1.9l0,0
		c0.1-0.9,0.3-1.7,0.8-2.4c0.5-0.8,1.2-1.4,2-1.8c1.7-0.9,3.3-0.7,4.7,0.4c0.1-2,1.1-3.5,2.9-4.4c2.7-1.4,4.8-0.4,6.5,2.9
		L130.5,107.7z"/>
	<path class="st1" d="M144.2,101.9l-3.7,1.6l-0.8-1.8h-0.1c-0.2,1.8-1.2,3-2.9,3.8c-1.2,0.5-2.3,0.6-3.4,0.2c-1-0.4-1.8-1.2-2.3-2.3
		c-1.1-2.5-0.2-4.5,2.5-6.1l3.2-1.9c-0.6-1.4-1.6-1.8-3.1-1.1c-1.5,0.7-2.8,1.7-3.7,3.2l-1.3-2.9c0.4-0.5,1.1-1.1,1.9-1.7
		c0.9-0.6,1.7-1.1,2.4-1.4c3.6-1.6,6.2-0.5,7.7,3.1L144.2,101.9z M138.3,98.3l-0.4-0.9l-2.2,1.3c-1.2,0.7-1.6,1.6-1.2,2.5
		c0.2,0.4,0.5,0.7,0.9,0.9c0.4,0.1,0.9,0.1,1.4-0.1c0.7-0.3,1.2-0.8,1.5-1.5C138.6,99.9,138.6,99.1,138.3,98.3z"/>
	<path class="st1" d="M146.3,100.7l-1.2-3.2c0.8,0.1,1.6,0.2,2.3,0.1s1.4-0.2,2-0.4c0.7-0.3,1.2-0.6,1.6-0.9
		c0.3-0.3,0.4-0.7,0.3-1.1c-0.1-0.3-0.3-0.4-0.5-0.5s-0.5-0.2-0.9-0.2c-0.3,0-0.7,0-1.1,0c-0.4,0-0.8,0-1.1,0c-0.6,0-1.1,0-1.6-0.1
		s-0.9-0.2-1.3-0.4c-0.4-0.2-0.7-0.5-1-0.8s-0.5-0.8-0.7-1.3c-0.3-0.7-0.4-1.4-0.2-2c0.1-0.6,0.4-1.2,0.8-1.8c0.4-0.5,0.9-1,1.5-1.4
		s1.3-0.8,2-1c0.6-0.2,1.2-0.4,1.8-0.5s1.2-0.2,1.9-0.3l1.2,3.1c-0.6-0.1-1.2-0.1-1.9,0c-0.6,0.1-1.2,0.2-1.8,0.4
		c-0.3,0.1-0.5,0.2-0.7,0.4c-0.2,0.1-0.4,0.3-0.5,0.4c-0.1,0.2-0.2,0.3-0.3,0.5c0,0.2,0,0.4,0,0.5c0.1,0.2,0.2,0.4,0.5,0.5
		c0.2,0.1,0.5,0.2,0.8,0.2s0.6,0,0.9,0c0.3,0,0.7,0,1,0c0.6,0,1.2,0,1.7,0.1s1,0.2,1.4,0.3c0.4,0.2,0.8,0.4,1.1,0.8
		c0.3,0.3,0.6,0.8,0.8,1.3c0.3,0.8,0.4,1.5,0.3,2.1c-0.1,0.7-0.4,1.3-0.8,1.8c-0.4,0.6-1,1-1.6,1.5c-0.7,0.4-1.4,0.8-2.1,1.1
		C149.1,100.3,147.7,100.6,146.3,100.7z"/>
</g>
<g>
	<g>
		<path class="st1" d="M92.6,165.8c-0.5,1.5-1.5,3.1-3.1,4.7c-2,2.1-4.3,3.2-6.7,3.2c-2.4,0-4.7-1-6.8-3c-2.2-2.1-3.4-4.6-3.5-7.3
			s0.9-5.2,3.1-7.4c1.3-1.4,2.6-2.3,3.8-3l3,2.9c-1.5,0.4-2.7,1.2-3.9,2.4c-1.3,1.3-1.9,2.8-1.8,4.4c0.1,1.6,0.8,3.1,2.2,4.4
			c1.3,1.3,2.8,1.9,4.3,1.9s2.9-0.6,4.1-1.9c1.2-1.2,1.9-2.6,2.3-4.2L92.6,165.8z"/>
		<path class="st1" d="M100.6,160.3c-1.8,1.5-3.6,2.1-5.4,2s-3.5-1.1-4.9-2.7c-1.5-1.7-2.1-3.6-1.9-5.4c0.2-1.9,1.2-3.5,3-5
			s3.5-2.1,5.4-2c1.8,0.1,3.4,1,4.8,2.7c1.5,1.8,2.1,3.6,2,5.5C103.4,157.1,102.4,158.8,100.6,160.3z M93.5,151.7
			c-0.8,0.6-1.1,1.4-1.1,2.3c0,0.9,0.4,1.8,1.3,2.8c1.7,2,3.4,2.4,5,1c1.6-1.3,1.5-3-0.3-5.1C96.7,150.7,95,150.3,93.5,151.7z"/>
		<path class="st1" d="M126.4,141.2l-3.5,2.4l-4.4-6.5c-1.1-1.7-2.3-2.1-3.5-1.3c-0.6,0.4-0.9,1-0.9,1.7s0.2,1.5,0.7,2.2l4.3,6.4
			l-3.5,2.4l-4.4-6.6c-1.1-1.6-2.2-2-3.4-1.2c-0.6,0.4-0.9,1-1,1.7c0,0.7,0.2,1.5,0.8,2.3l4.3,6.3l-3.5,2.4l-7.7-11.4l3.5-2.4
			l1.2,1.8l0,0c0-0.9,0.1-1.7,0.5-2.5s1-1.5,1.8-2c1.6-1.1,3.2-1.1,4.8-0.1c-0.1-2,0.7-3.6,2.4-4.7c2.5-1.7,4.8-1,6.8,2.1
			L126.4,141.2z"/>
		<path class="st1" d="M132.3,136.1L132.3,136.1l3.8,7l-3.7,2.1l-9.8-17.6l3.7-2.1l1,1.8l0,0c0.1-1.9,1-3.3,2.7-4.3
			c1.6-0.9,3.1-1,4.5-0.4s2.7,1.8,3.7,3.7c1.1,2,1.5,3.9,1.2,5.7s-1.3,3.1-2.9,4C135.1,136.7,133.7,136.8,132.3,136.1z M129.5,131.2
			l0.5,1c0.5,0.8,1.1,1.4,1.8,1.7s1.5,0.2,2.2-0.2c0.8-0.5,1.3-1.2,1.4-2.1c0.1-0.9-0.2-2-0.9-3.2c-1.2-2.1-2.6-2.7-4.2-1.8
			c-0.8,0.4-1.2,1.1-1.4,1.9C128.8,129.4,128.9,130.3,129.5,131.2z"/>
		<path class="st1" d="M156.2,125.6l-3.8,1.9l-0.9-1.9h-0.1c-0.2,1.9-1.1,3.3-2.7,4c-2.9,1.4-5.2,0.4-6.8-3.1l-3.6-7.5l3.8-1.9
			l3.5,7.1c0.9,1.8,2,2.3,3.4,1.6c0.7-0.3,1.1-0.8,1.3-1.5s0.1-1.4-0.3-2.3l-3.4-7.1l3.8-1.9L156.2,125.6z"/>
		<path class="st1" d="M167,120.7c-0.4,0.6-1.2,1.1-2.4,1.6c-2.7,1.2-4.7,0.4-6-2.5l-2.5-5.8l-2.1,0.9l-1.3-2.9l2-0.9l-1.2-2.7
			l3.4-2.8l1.7,3.8l2.8-1.2l1.3,2.9l-2.8,1.2l2.2,5.1c0.6,1.3,1.4,1.7,2.4,1.3c0.4-0.2,0.8-0.5,1.1-0.9L167,120.7z"/>
		<path class="st1" d="M180,115.7l-3.8,1.5l-0.7-1.8l0,0c-0.3,1.8-1.3,3-3,3.7c-1.2,0.5-2.4,0.5-3.4,0.1s-1.7-1.2-2.2-2.4
			c-1-2.5-0.1-4.5,2.7-6l3.3-1.8c-0.6-1.4-1.6-1.8-3.1-1.2c-1.5,0.6-2.8,1.6-3.8,3.1l-1.2-3c0.4-0.5,1.1-1,2-1.6s1.7-1,2.5-1.3
			c3.7-1.4,6.2-0.3,7.6,3.3L180,115.7z M174.2,112l-0.3-0.9l-2.2,1.2c-1.2,0.7-1.6,1.5-1.2,2.5c0.2,0.5,0.5,0.8,0.9,0.9
			c0.4,0.2,0.9,0.1,1.4-0.1c0.7-0.3,1.2-0.8,1.5-1.5C174.6,113.5,174.5,112.8,174.2,112z"/>
		<path class="st1" d="M192.9,110.7c-0.7,0.8-1.9,1.6-3.7,2.2c-2,0.7-3.8,0.7-5.5-0.1c-1.7-0.8-2.8-2.1-3.5-4
			c-0.8-2.2-0.7-4.2,0.2-5.9c0.9-1.7,2.4-3,4.7-3.8c1.5-0.5,2.7-0.7,3.5-0.5l1.2,3.4c-1.1-0.3-2.1-0.3-3.1,0c-1.2,0.4-1.9,1.1-2.4,2
			c-0.4,0.9-0.5,2,0,3.1c0.4,1.2,1,1.9,1.9,2.4c0.9,0.4,1.9,0.5,3,0.1c1-0.3,1.9-1,2.6-2L192.9,110.7z"/>
		<path class="st1" d="M192.9,94.5c-0.7,0.2-1.3,0.2-1.9-0.1c-0.6-0.3-0.9-0.7-1.1-1.3c-0.2-0.6-0.1-1.2,0.2-1.7s0.8-0.9,1.5-1.1
			s1.3-0.2,1.9,0c0.6,0.2,0.9,0.7,1.1,1.3c0.2,0.6,0.1,1.2-0.2,1.7C194.1,93.9,193.6,94.2,192.9,94.5z M199.7,109l-4.1,1.3
			l-4.2-13.1l4.1-1.3L199.7,109z"/>
		<path class="st1" d="M209.5,106.5c-2.2,0.6-4.1,0.5-5.7-0.4c-1.6-0.9-2.7-2.4-3.3-4.5c-0.6-2.2-0.4-4.1,0.5-5.7
			c1-1.6,2.6-2.7,4.8-3.4c2.2-0.6,4.1-0.5,5.7,0.4c1.6,0.9,2.7,2.3,3.3,4.4c0.6,2.2,0.5,4.1-0.5,5.8
			C213.4,104.7,211.8,105.9,209.5,106.5z M206.6,95.7c-1,0.3-1.6,0.8-2,1.6c-0.3,0.8-0.4,1.8,0,3.1c0.7,2.5,2.1,3.5,4.2,3
			c2-0.6,2.6-2.1,1.8-4.8C209.9,96.1,208.6,95.1,206.6,95.7z"/>
		<path class="st1" d="M232.4,100.4l-4.1,1l-1.8-7.5c-0.5-2.1-1.5-2.9-3-2.6c-0.7,0.2-1.2,0.6-1.6,1.2c-0.3,0.7-0.4,1.4-0.2,2.3
			l1.8,7.7l-4.1,1l-3.2-13.4l4.1-1l0.5,2.1h0.1c0.6-1.9,1.8-3,3.7-3.5c3-0.7,4.9,0.8,5.8,4.5L232.4,100.4z"/>
		<path class="st1" d="M246.9,97.6l-4,0.8l-0.4-1.9h-0.1c-0.6,1.7-1.8,2.7-3.6,3c-1.3,0.2-2.4,0.1-3.3-0.5c-0.9-0.6-1.5-1.5-1.7-2.8
			c-0.5-2.6,0.8-4.4,3.8-5.4l3.6-1.2c-0.3-1.5-1.2-2.1-2.8-1.8c-1.6,0.3-3.1,1.1-4.3,2.3l-0.6-3.1c0.5-0.4,1.3-0.8,2.2-1.2
			c1-0.4,1.9-0.7,2.7-0.9c3.9-0.7,6.2,0.8,6.9,4.7L246.9,97.6z M242,92.8l-0.2-0.9l-2.4,0.8c-1.3,0.4-1.9,1.2-1.7,2.2
			c0.1,0.5,0.3,0.8,0.7,1.1c0.4,0.2,0.9,0.3,1.4,0.2c0.8-0.1,1.4-0.5,1.8-1.2C242,94.4,242.1,93.6,242,92.8z"/>
		<path class="st1" d="M254.5,96.4l-4.2,0.7l-3.2-20.2l4.2-0.7L254.5,96.4z"/>
		<path class="st1" d="M269.6,88.7l-8.9,1.1c0.4,2,1.8,2.8,4.1,2.5c1.5-0.2,2.8-0.7,3.8-1.6l0.4,3c-1.2,0.8-2.8,1.4-4.8,1.6
			c-2.2,0.3-4-0.1-5.4-1.2s-2.2-2.7-2.5-4.9c-0.3-2.3,0.2-4.2,1.3-5.6c1.2-1.5,2.7-2.4,4.6-2.6c2-0.2,3.6,0.2,4.9,1.2
			c1.2,1.1,2,2.6,2.2,4.6L269.6,88.7z M265.4,86.6c-0.2-2-1.2-2.8-2.7-2.6c-0.7,0.1-1.2,0.4-1.7,1.1c-0.4,0.6-0.6,1.4-0.6,2.2
			L265.4,86.6z"/>
		<path class="st1" d="M271.9,93.8l-0.3-3.4c0.7,0.4,1.5,0.6,2.2,0.8c0.7,0.2,1.4,0.2,2,0.2c0.8-0.1,1.3-0.2,1.8-0.4
			c0.4-0.2,0.6-0.6,0.6-1c0-0.3-0.1-0.5-0.3-0.6c-0.2-0.2-0.5-0.3-0.8-0.4s-0.7-0.2-1-0.3c-0.4-0.1-0.7-0.2-1.1-0.3
			c-0.6-0.2-1.1-0.3-1.5-0.6c-0.4-0.2-0.8-0.5-1.1-0.7c-0.3-0.3-0.6-0.6-0.7-1c-0.2-0.4-0.3-0.9-0.3-1.4c-0.1-0.8,0.1-1.4,0.3-2
			c0.3-0.6,0.7-1.1,1.2-1.5s1.2-0.7,1.9-0.9c0.7-0.2,1.5-0.4,2.2-0.4c0.6,0,1.2,0,1.9,0c0.6,0,1.3,0.1,1.9,0.3l0.3,3.3
			c-0.6-0.3-1.2-0.5-1.8-0.6c-0.6-0.1-1.2-0.1-1.8-0.1c-0.3,0-0.5,0.1-0.8,0.1c-0.2,0.1-0.5,0.2-0.6,0.3c-0.2,0.1-0.3,0.2-0.4,0.4
			c-0.1,0.2-0.1,0.3-0.1,0.5c0,0.3,0.1,0.5,0.3,0.6c0.2,0.2,0.4,0.3,0.7,0.4c0.3,0.1,0.6,0.2,0.9,0.3c0.3,0.1,0.6,0.2,1,0.2
			c0.6,0.2,1.1,0.3,1.6,0.5s0.9,0.4,1.2,0.7c0.3,0.3,0.6,0.6,0.8,1c0.2,0.4,0.3,0.9,0.4,1.5c0.1,0.8-0.1,1.5-0.4,2.1
			s-0.7,1.1-1.3,1.5c-0.6,0.4-1.2,0.7-2,1c-0.8,0.2-1.5,0.4-2.4,0.4C274.6,94.3,273.2,94.2,271.9,93.8z"/>
	</g>
</g>
<g>
	<path class="st0" d="M309,498.6c-1.6,0-41-0.7-142.9-58.3c-102-57.8-122.2-91-123-92.3c-2.4-4-4.1-10.9-4.1-15.5
		c0-1.6,1.2-40.6,61.1-143.2l0.1-0.2l0.1-0.1c19.6-24.3,49.3-45.2,85.7-60.6C220.3,114,257.4,106,290.5,106
		c24.8,0,46.5,4.6,62.8,13.2c102.1,57.9,122.3,91,123.1,92.4c2.3,4,4.1,10.8,4.1,15.5c0,1.6-1.2,40.6-61.1,143.2
		S326,493.6,324.6,494.4C320.5,496.7,313.7,498.6,309,498.6L309,498.6z"/>
	<g>
		<path class="st1" d="M290.6,108.4c23.5,0,45,4.1,61.6,12.9c102.7,58.2,122.2,91.4,122.2,91.4c2.1,3.6,3.8,10,3.7,14.2
			c0,0-0.5,38.8-60.7,142s-94,123.2-94,123.2c-3.7,2.2-10.1,4-14.4,4l0,0c-0.3,0-39.4-0.1-141.6-58
			C64.7,379.9,45.2,346.7,45.2,346.7c-2.1-3.6-3.8-10-3.7-14.2c0,0,0.5-38.8,60.7-142C142.9,140.3,224.9,108.4,290.6,108.4
			 M290.6,103.4c-33.5,0-70.9,8-105.5,22.6c-36.8,15.5-66.8,36.7-86.7,61.3l-0.2,0.3l-0.2,0.3C37.7,291.1,36.5,330.8,36.5,332.4
			c-0.1,5.1,1.8,12.4,4.4,16.8c0.8,1.4,21.3,35.1,124,93.2c102.4,58,142.4,58.7,144.1,58.7c5.1,0,12.4-2,16.9-4.7
			c1.4-0.9,35.6-21.8,95.7-125C481.8,268.2,483,228.6,483,226.9c0.1-5.2-1.8-12.4-4.4-16.8c-0.8-1.4-21.4-35.1-124-93.2h-0.1h-0.1
			C337.8,108.1,315.7,103.4,290.6,103.4L290.6,103.4z"/>
	</g>
</g>
<path class="st1" d="M418,336.5c-38.9,103.9-67,127.3-67,127.3c-3,2.5-8.7,5.1-12.6,5.7c0,0-36.1,5.8-140.8-32.9
	C92.9,398,69.3,370.2,69.3,370.2c-2.5-3-5.2-8.7-5.8-12.6c0,0-5.9-35.8,33.1-139.8C136.6,146.9,253,96.1,317,117.6
	c104.7,38.7,128.2,66.5,128.2,66.5c2.6,3,5.1,8.7,5.8,12.6C451.1,196.8,457,232.6,418,336.5"/>
<g>
	<g>
		<path class="st0" d="M178.2,218.4v-21.7c0-0.9,0.3-1.8,1-2.5s1.5-1,2.5-1H193c0.9,0,1.7,0.3,2.4,1s1,1.5,1,2.5v21.7
			c0,1-0.3,1.8-1,2.5s-1.5,1-2.5,1h-11.3c-1,0-1.8-0.3-2.5-1C178.5,220.1,178.2,219.3,178.2,218.4z M192.9,218.2v-21.4h-11.1v21.4
			H192.9z"/>
		<path class="st0" d="M206.7,218.2h5.6v-21.4h-5.5c-0.5,0-0.9-0.2-1.3-0.5c-0.4-0.4-0.5-0.8-0.5-1.3s0.2-0.9,0.5-1.3
			c0.4-0.4,0.8-0.5,1.3-0.5h9.1v25h3.6v-7.6c0-0.5,0.2-0.9,0.5-1.3c0.3-0.4,0.8-0.5,1.3-0.5s0.9,0.2,1.3,0.5
			c0.4,0.4,0.5,0.8,0.5,1.3v9.4c0,0.5-0.2,0.9-0.5,1.3c-0.4,0.3-0.8,0.5-1.3,0.5h-14.7c-0.5,0-0.9-0.2-1.3-0.5
			c-0.4-0.4-0.5-0.8-0.5-1.3s0.2-0.9,0.5-1.3C205.7,218.4,206.2,218.2,206.7,218.2z"/>
		<path class="st0" d="M231.6,218.4v-21.7c0-0.9,0.3-1.8,1-2.5s1.5-1,2.5-1h11.3c0.9,0,1.7,0.3,2.4,1s1,1.5,1,2.5v21.7
			c0,1-0.3,1.8-1,2.5s-1.5,1-2.5,1H235c-1,0-1.8-0.3-2.5-1C232,220.1,231.6,219.3,231.6,218.4z M246.3,218.2v-21.4h-11.1v21.4H246.3
			z"/>
		<path class="st0" d="M258.4,218.4v-21.7c0-0.9,0.3-1.8,1-2.5s1.5-1,2.5-1h11.3c0.9,0,1.7,0.3,2.4,1c0.7,0.7,1,1.5,1,2.5v21.7
			c0,1-0.3,1.8-1,2.5s-1.5,1-2.5,1h-11.3c-1,0-1.8-0.3-2.5-1C258.7,220.1,258.4,219.3,258.4,218.4z M273.1,218.2v-21.4H262v21.4
			H273.1z"/>
		<path class="st0" d="M285.1,218.4v-21.7c0-0.9,0.3-1.8,1-2.5s1.5-1,2.5-1H300c0.9,0,1.8,0.3,2.4,1c0.7,0.7,1,1.5,1,2.5v21.7
			c0,1-0.3,1.8-1,2.5s-1.5,1-2.5,1h-11.3c-1,0-1.8-0.3-2.5-1C285.5,220.1,285.1,219.3,285.1,218.4z M299.8,218.2v-21.4h-11.1v21.4
			H299.8z"/>
		<path class="st0" d="M313.6,218.2h5.6v-21.4h-5.5c-0.5,0-0.9-0.2-1.3-0.5c-0.4-0.4-0.5-0.8-0.5-1.3s0.2-0.9,0.5-1.3
			c0.4-0.4,0.8-0.5,1.3-0.5h9.1v25h3.6v-7.6c0-0.5,0.2-0.9,0.5-1.3c0.4-0.4,0.8-0.5,1.3-0.5s0.9,0.2,1.3,0.5
			c0.4,0.4,0.5,0.8,0.5,1.3v9.4c0,0.5-0.2,0.9-0.5,1.3c-0.4,0.3-0.8,0.5-1.3,0.5h-14.7c-0.5,0-0.9-0.2-1.3-0.5
			c-0.4-0.4-0.5-0.8-0.5-1.3s0.2-0.9,0.5-1.3C312.7,218.4,313.1,218.2,313.6,218.2z"/>
		<path class="st0" d="M340.4,218.2h5.6v-21.4h-5.5c-0.5,0-0.9-0.2-1.3-0.5c-0.4-0.4-0.5-0.8-0.5-1.3s0.2-0.9,0.5-1.3
			c0.4-0.4,0.8-0.5,1.3-0.5h9.1v25h3.6v-7.6c0-0.5,0.2-0.9,0.5-1.3c0.4-0.4,0.8-0.5,1.3-0.5s0.9,0.2,1.3,0.5
			c0.4,0.4,0.5,0.8,0.5,1.3v9.4c0,0.5-0.2,0.9-0.5,1.3c-0.4,0.3-0.8,0.5-1.3,0.5h-14.7c-0.5,0-0.9-0.2-1.3-0.5
			c-0.4-0.4-0.5-0.8-0.5-1.3s0.2-0.9,0.5-1.3C339.4,218.4,339.8,218.2,340.4,218.2z"/>
		<path class="st0" d="M367.1,218.2h5.6v-21.4h-5.5c-0.5,0-0.9-0.2-1.3-0.5c-0.3-0.4-0.5-0.8-0.5-1.3s0.2-0.9,0.5-1.3
			c0.4-0.4,0.8-0.5,1.3-0.5h9.1v25h3.6v-7.6c0-0.5,0.2-0.9,0.5-1.3c0.4-0.4,0.8-0.5,1.3-0.5s0.9,0.2,1.3,0.5
			c0.4,0.4,0.5,0.8,0.5,1.3v9.4c0,0.5-0.2,0.9-0.5,1.3c-0.4,0.3-0.8,0.5-1.3,0.5H367c-0.5,0-0.9-0.2-1.3-0.5
			c-0.3-0.4-0.5-0.8-0.5-1.3s0.2-0.9,0.5-1.3C366.1,218.4,366.6,218.2,367.1,218.2z"/>
	</g>
	<g>
		<path class="st0" d="M154.9,267.3v-21.7c0-1,0.3-1.8,1-2.5s1.5-1,2.5-1h11.3c0.9,0,1.7,0.3,2.4,1s1,1.5,1,2.5v21.7
			c0,1-0.3,1.8-1,2.5s-1.5,1-2.5,1h-11.3c-1,0-1.8-0.3-2.5-1C155.2,269.1,154.9,268.3,154.9,267.3z M169.6,267.2v-21.4h-11.1v21.4
			H169.6z"/>
		<path class="st0" d="M183.4,267.2h5.6v-21.4h-5.5c-0.5,0-0.9-0.2-1.3-0.5c-0.4-0.4-0.5-0.8-0.5-1.3s0.2-0.9,0.5-1.3
			c0.4-0.4,0.8-0.5,1.3-0.5h9.1v25h3.6v-7.6c0-0.5,0.2-0.9,0.5-1.3c0.4-0.4,0.8-0.5,1.3-0.5s0.9,0.2,1.3,0.5
			c0.4,0.4,0.5,0.8,0.5,1.3v9.4c0,0.5-0.2,0.9-0.5,1.3c-0.4,0.4-0.8,0.5-1.3,0.5h-14.7c-0.5,0-0.9-0.2-1.3-0.5
			c-0.4-0.4-0.5-0.8-0.5-1.3s0.2-0.9,0.5-1.3C182.5,267.3,182.9,267.2,183.4,267.2z"/>
		<path class="st0" d="M208.4,267.3v-21.7c0-1,0.3-1.8,1-2.5s1.5-1,2.5-1h11.3c0.9,0,1.7,0.3,2.4,1s1,1.5,1,2.5v21.7
			c0,1-0.3,1.8-1,2.5s-1.5,1-2.5,1h-11.3c-1,0-1.8-0.3-2.5-1C208.7,269.1,208.4,268.3,208.4,267.3z M223.1,267.2v-21.4H212v21.4
			H223.1z"/>
		<path class="st0" d="M235.1,267.3v-21.7c0-1,0.3-1.8,1-2.5s1.5-1,2.5-1h11.3c0.9,0,1.7,0.3,2.4,1s1,1.5,1,2.5v21.7
			c0,1-0.3,1.8-1,2.5s-1.5,1-2.5,1h-11.3c-1,0-1.8-0.3-2.5-1C235.4,269.1,235.1,268.3,235.1,267.3z M249.8,267.2v-21.4h-11.1v21.4
			H249.8z"/>
		<path class="st0" d="M261.8,267.3v-21.7c0-1,0.3-1.8,1-2.5s1.5-1,2.5-1h11.3c0.9,0,1.7,0.3,2.4,1c0.7,0.7,1,1.5,1,2.5v21.7
			c0,1-0.3,1.8-1,2.5s-1.5,1-2.5,1h-11.3c-1,0-1.8-0.3-2.5-1C262.2,269.1,261.8,268.3,261.8,267.3z M276.5,267.2v-21.4h-11.1v21.4
			H276.5z"/>
		<path class="st0" d="M290.3,267.2h5.6v-21.4h-5.5c-0.5,0-0.9-0.2-1.3-0.5c-0.4-0.4-0.5-0.8-0.5-1.3s0.2-0.9,0.5-1.3
			c0.4-0.4,0.8-0.5,1.3-0.5h9.1v25h3.6v-7.6c0-0.5,0.2-0.9,0.5-1.3c0.4-0.4,0.8-0.5,1.3-0.5s0.9,0.2,1.3,0.5
			c0.3,0.4,0.5,0.8,0.5,1.3v9.4c0,0.5-0.2,0.9-0.5,1.3c-0.4,0.4-0.8,0.5-1.3,0.5h-14.7c-0.5,0-0.9-0.2-1.3-0.5
			c-0.4-0.4-0.5-0.8-0.5-1.3s0.2-0.9,0.5-1.3C289.4,267.3,289.8,267.2,290.3,267.2z"/>
		<path class="st0" d="M315.3,267.3v-21.7c0-1,0.3-1.8,1-2.5s1.5-1,2.5-1h11.3c0.9,0,1.7,0.3,2.4,1c0.7,0.7,1,1.5,1,2.5v21.7
			c0,1-0.3,1.8-1,2.5s-1.5,1-2.5,1h-11.3c-1,0-1.8-0.3-2.5-1C315.6,269.1,315.3,268.3,315.3,267.3z M330,267.2v-21.4h-11.1v21.4H330
			z"/>
		<path class="st0" d="M343.8,267.2h5.6v-21.4h-5.5c-0.5,0-0.9-0.2-1.3-0.5c-0.4-0.4-0.5-0.8-0.5-1.3s0.2-0.9,0.5-1.3
			c0.4-0.4,0.8-0.5,1.3-0.5h9.1v25h3.6v-7.6c0-0.5,0.2-0.9,0.5-1.3c0.4-0.4,0.8-0.5,1.3-0.5s0.9,0.2,1.3,0.5
			c0.4,0.4,0.5,0.8,0.5,1.3v9.4c0,0.5-0.2,0.9-0.5,1.3c-0.4,0.4-0.8,0.5-1.3,0.5h-14.7c-0.5,0-0.9-0.2-1.3-0.5
			c-0.3-0.4-0.5-0.8-0.5-1.3s0.2-0.9,0.5-1.3C342.9,267.3,343.3,267.2,343.8,267.2z"/>
	</g>
	<g>
		<path class="st0" d="M153,316.3v-21.7c0-1,0.3-1.8,1-2.5s1.5-1,2.5-1h11.3c0.9,0,1.7,0.3,2.4,1s1,1.5,1,2.5v21.7
			c0,1-0.3,1.8-1,2.5s-1.5,1-2.5,1h-11.3c-1,0-1.8-0.3-2.5-1C153.3,318.1,153,317.2,153,316.3z M167.7,316.1v-21.4h-11.1v21.4H167.7
			z"/>
		<path class="st0" d="M181.5,316.1h5.6v-21.4h-5.5c-0.5,0-0.9-0.2-1.3-0.5c-0.4-0.4-0.5-0.8-0.5-1.3s0.2-0.9,0.5-1.3
			c0.4-0.4,0.8-0.5,1.3-0.5h9.1v25h3.6v-7.6c0-0.5,0.2-0.9,0.5-1.3c0.4-0.4,0.8-0.5,1.3-0.5s0.9,0.2,1.3,0.5
			c0.4,0.3,0.5,0.8,0.5,1.3v9.4c0,0.5-0.2,0.9-0.5,1.3c-0.4,0.4-0.8,0.5-1.3,0.5h-14.7c-0.5,0-0.9-0.2-1.3-0.5
			c-0.4-0.4-0.5-0.8-0.5-1.3s0.2-0.9,0.5-1.3C180.5,316.3,181,316.1,181.5,316.1z"/>
		<path class="st0" d="M206.4,316.3v-21.7c0-1,0.3-1.8,1-2.5s1.5-1,2.5-1h11.3c0.9,0,1.7,0.3,2.4,1s1,1.5,1,2.5v21.7
			c0,1-0.3,1.8-1,2.5s-1.5,1-2.5,1h-11.3c-1,0-1.8-0.3-2.5-1C206.8,318.1,206.4,317.2,206.4,316.3z M221.1,316.1v-21.4H210v21.4
			H221.1z"/>
		<path class="st0" d="M233.2,316.3v-21.7c0-1,0.3-1.8,1-2.5s1.5-1,2.5-1H248c0.9,0,1.7,0.3,2.4,1s1,1.5,1,2.5v21.7
			c0,1-0.3,1.8-1,2.5s-1.5,1-2.5,1h-11.3c-1,0-1.8-0.3-2.5-1C233.5,318.1,233.2,317.2,233.2,316.3z M247.9,316.1v-21.4h-11.1v21.4
			H247.9z"/>
		<path class="st0" d="M259.9,316.3v-21.7c0-1,0.3-1.8,1-2.5s1.5-1,2.5-1h11.3c0.9,0,1.7,0.3,2.4,1c0.7,0.7,1,1.5,1,2.5v21.7
			c0,1-0.3,1.8-1,2.5s-1.5,1-2.5,1h-11.3c-1,0-1.8-0.3-2.5-1C260.2,318.1,259.9,317.2,259.9,316.3z M274.6,316.1v-21.4h-11.1v21.4
			H274.6z"/>
		<path class="st0" d="M288.4,316.1h5.6v-21.4h-5.5c-0.5,0-0.9-0.2-1.3-0.5c-0.4-0.4-0.5-0.8-0.5-1.3s0.2-0.9,0.5-1.3
			c0.4-0.4,0.8-0.5,1.3-0.5h9.1v25h3.6v-7.6c0-0.5,0.2-0.9,0.5-1.3c0.4-0.4,0.8-0.5,1.3-0.5s0.9,0.2,1.3,0.5s0.5,0.8,0.5,1.3v9.4
			c0,0.5-0.2,0.9-0.5,1.3c-0.4,0.4-0.8,0.5-1.3,0.5h-14.7c-0.5,0-0.9-0.2-1.3-0.5c-0.4-0.4-0.5-0.8-0.5-1.3s0.2-0.9,0.5-1.3
			C287.5,316.3,287.9,316.1,288.4,316.1z"/>
		<path class="st0" d="M313.4,316.3v-21.7c0-1,0.3-1.8,1-2.5s1.5-1,2.5-1h11.3c0.9,0,1.7,0.3,2.4,1c0.7,0.7,1,1.5,1,2.5v21.7
			c0,1-0.3,1.8-1,2.5s-1.5,1-2.5,1h-11.3c-1,0-1.8-0.3-2.5-1C313.7,318.1,313.4,317.2,313.4,316.3z M328.1,316.1v-21.4H317v21.4
			H328.1z"/>
		<path class="st0" d="M341.9,316.1h5.6v-21.4H342c-0.5,0-0.9-0.2-1.3-0.5c-0.4-0.4-0.5-0.8-0.5-1.3s0.2-0.9,0.5-1.3
			c0.4-0.4,0.8-0.5,1.3-0.5h9.1v25h3.6v-7.6c0-0.5,0.2-0.9,0.5-1.3c0.4-0.4,0.8-0.5,1.3-0.5s0.9,0.2,1.3,0.5s0.5,0.8,0.5,1.3v9.4
			c0,0.5-0.2,0.9-0.5,1.3c-0.4,0.4-0.8,0.5-1.3,0.5h-14.7c-0.5,0-0.9-0.2-1.3-0.5c-0.3-0.4-0.5-0.8-0.5-1.3s0.2-0.9,0.5-1.3
			C340.9,316.3,341.4,316.1,341.9,316.1z"/>
	</g>
	<g>
		<path class="st0" d="M149,365.2v-21.7c0-0.9,0.3-1.8,1-2.5s1.5-1,2.5-1h11.3c0.9,0,1.7,0.3,2.4,1s1,1.5,1,2.5v21.7
			c0,1-0.3,1.8-1,2.5s-1.5,1-2.5,1h-11.3c-1,0-1.8-0.3-2.5-1C149.4,367,149,366.2,149,365.2z M163.7,365.1v-21.4h-11.1v21.4H163.7z"
			/>
		<path class="st0" d="M177.5,365.1h5.6v-21.4h-5.5c-0.5,0-0.9-0.2-1.3-0.5c-0.4-0.4-0.5-0.8-0.5-1.3s0.2-0.9,0.5-1.3
			c0.4-0.4,0.8-0.5,1.3-0.5h9.1v25h3.6v-7.6c0-0.5,0.2-0.9,0.5-1.3c0.4-0.4,0.8-0.5,1.3-0.5s0.9,0.2,1.3,0.5
			c0.4,0.4,0.5,0.8,0.5,1.3v9.4c0,0.5-0.2,0.9-0.5,1.3c-0.4,0.4-0.8,0.5-1.3,0.5h-14.7c-0.5,0-0.9-0.2-1.3-0.6
			c-0.4-0.4-0.5-0.8-0.5-1.3s0.2-0.9,0.5-1.3C176.6,365.3,177,365.1,177.5,365.1z"/>
		<path class="st0" d="M202.5,365.2v-21.7c0-0.9,0.3-1.8,1-2.5s1.5-1,2.5-1h11.3c0.9,0,1.7,0.3,2.4,1s1,1.5,1,2.5v21.7
			c0,1-0.3,1.8-1,2.5s-1.5,1-2.5,1H206c-1,0-1.8-0.3-2.5-1C202.9,367,202.5,366.2,202.5,365.2z M217.2,365.1v-21.4h-11.1v21.4H217.2
			z"/>
		<path class="st0" d="M229.2,365.2v-21.7c0-0.9,0.3-1.8,1-2.5s1.5-1,2.5-1H244c0.9,0,1.7,0.3,2.4,1s1,1.5,1,2.5v21.7
			c0,1-0.3,1.8-1,2.5s-1.5,1-2.5,1h-11.3c-1,0-1.8-0.3-2.5-1C229.6,367,229.2,366.2,229.2,365.2z M243.9,365.1v-21.4h-11.1v21.4
			H243.9z"/>
		<path class="st0" d="M257.7,365.1h5.6v-21.4h-5.5c-0.5,0-0.9-0.2-1.3-0.5c-0.4-0.4-0.5-0.8-0.5-1.3s0.2-0.9,0.5-1.3
			c0.4-0.4,0.8-0.5,1.3-0.5h9.1v25h3.6v-7.6c0-0.5,0.2-0.9,0.5-1.3c0.4-0.4,0.8-0.5,1.3-0.5s0.9,0.2,1.3,0.5
			c0.4,0.4,0.5,0.8,0.5,1.3v9.4c0,0.5-0.2,0.9-0.5,1.3c-0.4,0.4-0.8,0.5-1.3,0.5h-14.7c-0.5,0-0.9-0.2-1.3-0.6s-0.5-0.8-0.5-1.3
			s0.2-0.9,0.5-1.3C256.8,365.3,257.2,365.1,257.7,365.1z"/>
		<path class="st0" d="M282.7,365.2v-21.7c0-0.9,0.3-1.8,1-2.5s1.5-1,2.5-1h11.3c0.9,0,1.7,0.3,2.4,1c0.7,0.7,1,1.5,1,2.5v21.7
			c0,1-0.3,1.8-1,2.5s-1.5,1-2.5,1h-11.3c-1,0-1.8-0.3-2.5-1C283.1,367,282.7,366.2,282.7,365.2z M297.4,365.1v-21.4h-11.1v21.4
			H297.4z"/>
		<path class="st0" d="M311.2,365.1h5.6v-21.4h-5.5c-0.5,0-0.9-0.2-1.3-0.5s-0.5-0.8-0.5-1.3s0.2-0.9,0.5-1.3
			c0.4-0.4,0.8-0.5,1.3-0.5h9.1v25h3.6v-7.6c0-0.5,0.2-0.9,0.5-1.3c0.4-0.4,0.8-0.5,1.3-0.5s0.9,0.2,1.3,0.5
			c0.4,0.4,0.5,0.8,0.5,1.3v9.4c0,0.5-0.2,0.9-0.5,1.3c-0.4,0.4-0.8,0.5-1.3,0.5h-14.7c-0.5,0-0.9-0.2-1.3-0.6s-0.5-0.8-0.5-1.3
			s0.2-0.9,0.5-1.3C310.3,365.3,310.7,365.1,311.2,365.1z"/>
		<path class="st0" d="M338,365.1h5.6v-21.4H338c-0.5,0-0.9-0.2-1.3-0.5c-0.3-0.4-0.5-0.8-0.5-1.3s0.2-0.9,0.5-1.3
			c0.4-0.4,0.8-0.5,1.3-0.5h9.1v25h3.6v-7.6c0-0.5,0.2-0.9,0.5-1.3c0.4-0.4,0.8-0.5,1.3-0.5s0.9,0.2,1.3,0.5
			c0.4,0.4,0.5,0.8,0.5,1.3v9.4c0,0.5-0.2,0.9-0.5,1.3c-0.4,0.4-0.8,0.5-1.3,0.5H338c-0.5,0-0.9-0.2-1.3-0.6s-0.5-0.8-0.5-1.3
			s0.2-0.9,0.5-1.3C337,365.3,337.5,365.1,338,365.1z"/>
	</g>
	<path class="st0" d="M88.6,343.7h3.9v12.4c0.5,0.8,1,1.5,1.5,2c0,0,0.6,0.8,2.2,2.2v-20.2h-7.5C88.6,341.5,88.6,342.7,88.6,343.7z
		 M278,141.3h-11.3c-0.9,0-1.8,0.3-2.5,1s-1,1.5-1,2.5v21.7c0,1,0.3,1.8,1,2.5s1.5,1,2.5,1H278c1,0,1.8-0.3,2.5-1s1-1.5,1-2.5v-21.7
		c0-0.9-0.3-1.8-1-2.5C279.7,141.6,278.9,141.3,278,141.3z M277.8,166.3h-11.1V145h11.1V166.3z M304.7,141.3h-11.3
		c-0.9,0-1.8,0.3-2.5,1s-1,1.5-1,2.5v21.7c0,1,0.3,1.8,1,2.5s1.5,1,2.5,1h11.3c1,0,1.8-0.3,2.5-1s1-1.5,1-2.5v-21.7
		c0-0.9-0.3-1.8-1-2.5C306.4,141.6,305.6,141.3,304.7,141.3z M304.6,166.3h-11.1V145h11.1V166.3z M180.3,398
		c-0.4,0.3-0.5,0.8-0.5,1.3s0.2,0.9,0.5,1.3c0.4,0.4,0.8,0.5,1.3,0.5h5.5v7.9c1.2,0.5,2.4,1,3.6,1.4v-12.9h-9.1
		C181,397.5,180.6,397.7,180.3,398z M389.9,340h-11.3c-0.9,0-1.8,0.3-2.5,1s-1,1.5-1,2.5v21.7c0,1,0.3,1.8,1,2.5s1.5,1,2.5,1h3.9
		c0.5-1.2,1.1-2.4,1.6-3.6h-5.3v-21.4h11.1v7.8c1.2-2.8,2.3-5.7,3.5-8.7c-0.1-0.6-0.4-1.2-0.9-1.7C391.6,340.3,390.8,340,389.9,340z
		 M103.6,270.8c0.5,0,0.9-0.2,1.3-0.5s0.5-0.8,0.5-1.3v-8.5c-1.1,3.6-2.2,7-3.2,10.4h1.4C103.6,270.9,103.6,270.8,103.6,270.8z
		 M274.8,397.5h-11.3c-1,0-1.8,0.3-2.5,1s-1,1.5-1,2.5v21.7c0,1,0.3,1.8,1,2.5s1.5,1,2.5,1h11.3c1,0,1.8-0.3,2.5-1s1-1.5,1-2.5V401
		c0-0.9-0.3-1.8-1-2.5C276.5,397.8,275.7,397.5,274.8,397.5z M274.6,422.5h-11.1v-21.4h11.1V422.5z M130.4,257.8
		c-0.5,0-0.9,0.2-1.3,0.5c-0.4,0.4-0.5,0.8-0.5,1.3v7.6H125v-25h-9.1c-0.5,0-0.9,0.2-1.3,0.5c-0.4,0.4-0.5,0.8-0.5,1.3
		s0.2,0.9,0.5,1.3c0.4,0.4,0.8,0.5,1.3,0.5h5.5v21.4h-5.6c-0.5,0-0.9,0.2-1.3,0.5s-0.5,0.8-0.5,1.3s0.2,0.9,0.5,1.3
		c0.4,0.4,0.8,0.6,1.3,0.6h14.7c0.5,0,0.9-0.2,1.3-0.5c0.4-0.3,0.5-0.8,0.5-1.3v-9.4c0-0.5-0.2-0.9-0.5-1.3
		C131.3,258,130.9,257.8,130.4,257.8z M128.3,306.7c-0.5,0-0.9,0.2-1.3,0.5c-0.4,0.4-0.5,0.8-0.5,1.3v7.6h-3.6v-25h-9.1
		c-0.5,0-0.9,0.2-1.3,0.5c-0.4,0.4-0.5,0.8-0.5,1.3s0.2,0.9,0.5,1.3c0.4,0.4,0.8,0.5,1.3,0.5h5.5v21.4h-5.6c-0.5,0-0.9,0.2-1.3,0.5
		s-0.5,0.8-0.5,1.3s0.2,0.9,0.5,1.3c0.4,0.4,0.8,0.6,1.3,0.6h14.7c0.5,0,0.9-0.2,1.3-0.5c0.4-0.4,0.5-0.8,0.5-1.3v-9.4
		c0-0.5-0.2-0.9-0.5-1.3C129.2,306.9,128.8,306.7,128.3,306.7z M128.3,355.7c-0.5,0-0.9,0.2-1.3,0.5c-0.4,0.4-0.5,0.8-0.5,1.3v7.6
		h-3.6v-25h-9.1c-0.5,0-0.9,0.2-1.3,0.5c-0.4,0.4-0.5,0.8-0.5,1.3s0.2,0.9,0.5,1.3c0.4,0.4,0.8,0.5,1.3,0.5h5.5v21.4h-5.6
		c-0.5,0-0.9,0.2-1.3,0.5s-0.5,0.8-0.5,1.3s0.2,0.9,0.5,1.3c0.4,0.4,0.8,0.6,1.3,0.6h14.7c0.5,0,0.9-0.2,1.3-0.5
		c0.4-0.3,0.5-0.8,0.5-1.3v-9.4c0-0.5-0.2-0.9-0.5-1.3C129.2,355.9,128.8,355.7,128.3,355.7z M126.3,221.3c0.4-0.4,0.5-0.8,0.5-1.3
		v-8.7c-1.3,1.7-2.5,3.4-3.6,5.1v1.8H122c-0.8,1.2-1.5,2.4-2.3,3.6h5.3C125.5,221.9,126,221.7,126.3,221.3z M101.6,306.7
		c-0.5,0-0.9,0.2-1.3,0.5c-0.4,0.4-0.5,0.8-0.5,1.3v7.6h-3.6v-23c-1.5,6-2.7,11.4-3.6,16.3v6.7h-1.3c-0.2,1.3-0.4,2.5-0.6,3.6h10.9
		c0.5,0,0.9-0.2,1.3-0.5c0.4-0.4,0.5-0.8,0.5-1.3v-9.4c0-0.5-0.2-0.9-0.5-1.3C102.5,306.9,102.1,306.7,101.6,306.7z M303.1,413.1
		c-0.5,0-0.9,0.2-1.3,0.5c-0.4,0.4-0.5,0.8-0.5,1.3v7.6h-3.6v-25h-9.1c-0.5,0-0.9,0.2-1.3,0.5s-0.5,0.8-0.5,1.3s0.2,0.9,0.5,1.3
		c0.4,0.4,0.8,0.5,1.3,0.5h5.5v21.4h-5.6c-0.5,0-0.9,0.2-1.3,0.5s-0.5,0.8-0.5,1.3s0.2,0.9,0.5,1.3s0.8,0.6,1.3,0.6h14.7
		c0.5,0,0.9-0.2,1.3-0.5c0.4-0.4,0.5-0.8,0.5-1.3V415c0-0.5-0.2-0.9-0.5-1.3C304,413.3,303.6,413.1,303.1,413.1z M151.8,208.8
		c-0.5,0-0.9,0.2-1.3,0.5c-0.4,0.4-0.5,0.8-0.5,1.3v7.6h-3.6v-25H143c-1.2,1.2-2.4,2.4-3.6,3.6h3.4v21.4h-5.6
		c-0.5,0-0.9,0.2-1.3,0.5c-0.4,0.3-0.5,0.8-0.5,1.3s0.2,0.9,0.5,1.3c0.4,0.4,0.8,0.5,1.3,0.5h14.7c0.5,0,0.9-0.2,1.3-0.5
		c0.4-0.4,0.5-0.8,0.5-1.3v-9.4c0-0.5-0.2-0.9-0.5-1.3C152.7,209,152.3,208.8,151.8,208.8z M421,220.8c0.7-0.7,1-1.5,1-2.5v-21.7
		c0-0.9-0.3-1.8-1-2.5s-1.5-1-2.4-1h-11.3c-1,0-1.8,0.3-2.5,1s-1,1.5-1,2.5v21.7c0,1,0.3,1.8,1,2.5s1.5,1,2.5,1h11.3
		C419.5,221.9,420.3,221.5,421,220.8z M418.4,218.2h-11.1v-21.4h11.1V218.2z M400.1,290.8h-11.3c-0.9,0-1.8,0.3-2.5,1s-1,1.5-1,2.5
		V316c0,1,0.3,1.8,1,2.5s1.5,1,2.5,1h11.3c0.9,0,1.6-0.3,2.2-0.8c0.4-1.2,0.9-2.4,1.3-3.6v-20.8c0-0.9-0.3-1.8-1-2.5
		S401.1,290.8,400.1,290.8z M400,315.8h-11.1v-21.4H400V315.8z M424.3,242.1h-8.1c-0.5,0-0.9,0.2-1.3,0.5c-0.4,0.4-0.5,0.8-0.5,1.3
		s0.2,0.9,0.5,1.3c0.4,0.4,0.8,0.5,1.3,0.5h5.5v8.6C422.8,249.9,423.6,245.9,424.3,242.1z M414.9,267.7c-0.4,0.3-0.5,0.8-0.5,1.3
		s0.2,0.9,0.5,1.3c0.4,0.4,0.8,0.6,1.3,0.6h1.4c0.3-1.2,0.7-2.4,1-3.6h-2.4C415.7,267.2,415.2,267.3,414.9,267.7z M402.5,242.1
		h-11.3c-1,0-1.8,0.3-2.5,1s-1,1.5-1,2.5v21.7c0,1,0.3,1.8,1,2.5s1.5,1,2.5,1h11.3c1,0,1.8-0.3,2.5-1s1-1.5,1-2.5v-21.7
		c0-1-0.3-1.8-1-2.5C404.3,242.5,403.5,242.1,402.5,242.1z M402.4,267.2h-11.1v-21.4h11.1V267.2z M101.6,355.7
		c-0.5,0-0.9,0.2-1.3,0.5c-0.4,0.4-0.5,0.8-0.5,1.3v5.9c1,0.8,2.2,1.8,3.6,2.8v-8.7c0-0.5-0.2-0.9-0.5-1.3
		C102.5,355.9,102.1,355.7,101.6,355.7z M377.4,166.2v0.2h-5.6c-0.5,0-0.9,0.2-1.3,0.5c-0.3,0.3-0.5,0.8-0.5,1.3s0.2,0.9,0.5,1.3
		c0.4,0.4,0.8,0.5,1.3,0.5h12.8C382.4,168.7,380,167.5,377.4,166.2z M167.8,397.5h-8c3.6,1.6,7.4,3.3,11.4,5V401
		c0-0.9-0.3-1.8-1-2.5C169.6,397.8,168.7,397.5,167.8,397.5z M333,156.9c-0.5,0-0.9,0.2-1.3,0.5c-0.4,0.4-0.5,0.8-0.5,1.3v7.6h-3.6
		V144c-2.3-0.9-4.7-1.8-7.1-2.8h-2c-0.5,0-0.9,0.2-1.3,0.5c-0.4,0.4-0.5,0.8-0.5,1.3s0.2,0.9,0.5,1.3c0.4,0.4,0.8,0.5,1.3,0.5h5.5
		v21.4h-5.6c-0.5,0-0.9,0.2-1.3,0.5s-0.5,0.8-0.5,1.3s0.2,0.9,0.5,1.3c0.4,0.4,0.8,0.5,1.3,0.5H333c0.5,0,0.9-0.2,1.3-0.5
		s0.5-0.8,0.5-1.3v-9.4c0-0.5-0.2-0.9-0.5-1.3C334,157.1,333.5,156.9,333,156.9z M328.2,397.5h-11.3c-1,0-1.8,0.3-2.5,1
		s-1,1.5-1,2.5v21.7c0,1,0.3,1.8,1,2.5s1.5,1,2.5,1h11.3c1,0,1.8-0.3,2.5-1s1-1.5,1-2.5V401c0-0.9-0.3-1.8-1-2.5
		S329.2,397.5,328.2,397.5z M328.1,422.5H317v-21.4h11.1V422.5z M226.1,156.9c-0.5,0-0.9,0.2-1.3,0.5c-0.4,0.4-0.5,0.8-0.5,1.3v7.6
		h-3.6v-21.2c-1.2,0.4-2.4,0.9-3.6,1.4v19.8h-5.6c-0.5,0-0.9,0.2-1.3,0.5c-0.4,0.3-0.5,0.8-0.5,1.3s0.2,0.9,0.5,1.3
		c0.4,0.4,0.8,0.5,1.3,0.5h14.7c0.5,0,0.9-0.2,1.3-0.5c0.4-0.3,0.5-0.8,0.5-1.3v-9.4c0-0.5-0.2-0.9-0.5-1.3
		C227,157.1,226.6,156.9,226.1,156.9z M221.3,397.5H210c-1,0-1.8,0.3-2.5,1s-1,1.5-1,2.5v15.4c1.2,0.5,2.4,0.9,3.6,1.3v-16.5h11.1
		v20.5c1.2,0.4,2.4,0.8,3.6,1.2c0-0.1,0-0.1,0-0.2V401c0-0.9-0.3-1.8-1-2.5C223,397.8,222.2,397.5,221.3,397.5z M197.6,166.3h-11.1
		v-5.4c-1.2,0.7-2.4,1.4-3.6,2.1v3.4c0,1,0.3,1.8,1,2.5s1.5,1,2.5,1h11.3c1,0,1.8-0.3,2.5-1s1-1.5,1-2.5v-13.2
		c-1.2,0.6-2.4,1.2-3.6,1.8L197.6,166.3L197.6,166.3z M248,397.5h-11.3c-1,0-1.8,0.3-2.5,1s-1,1.5-1,2.5v21.7c0,1,0.3,1.8,1,2.5
		s1.5,1,2.5,1H248c1,0,1.8-0.3,2.5-1s1-1.5,1-2.5V401c0-0.9-0.3-1.8-1-2.5S249,397.5,248,397.5z M247.9,422.5h-11.1v-21.4h11.1
		V422.5z M356.5,413.1c-0.5,0-0.9,0.2-1.3,0.5c-0.4,0.4-0.5,0.8-0.5,1.3v6.3c1.2-1.8,2.4-3.7,3.6-5.8v-0.5c0-0.5-0.2-0.9-0.5-1.3
		C357.5,413.3,357.1,413.1,356.5,413.1z M358.8,157.2c-0.1,0.1-0.2,0.1-0.3,0.2c-0.4,0.4-0.5,0.8-0.5,1.3v7.6h-3.6v-11.1
		c-1.2-0.5-2.4-1.1-3.6-1.6v12.7h-5.6c-0.5,0-0.9,0.2-1.3,0.5s-0.5,0.8-0.5,1.3s0.2,0.9,0.5,1.3c0.3,0.4,0.8,0.5,1.3,0.5h14.7
		c0.5,0,0.9-0.2,1.3-0.5s0.5-0.8,0.5-1.3v-9.4c0-0.1,0-0.2,0-0.3C360.6,158.1,359.7,157.7,358.8,157.2z M351.1,397.5H342
		c-0.5,0-0.9,0.2-1.3,0.5s-0.5,0.8-0.5,1.3s0.2,0.9,0.5,1.3c0.4,0.4,0.8,0.5,1.3,0.5h5.5v21.4h-5.6c-0.5,0-0.9,0.2-1.3,0.5
		c-0.3,0.3-0.5,0.8-0.5,1.3s0.2,0.9,0.5,1.3c0.4,0.4,0.8,0.6,1.3,0.6h9.5c0.8-1.1,1.6-2.3,2.5-3.6h-2.8V397.5z M251.2,141.3h-11.3
		c-1,0-1.8,0.3-2.5,1s-1,1.5-1,2.5v21.7c0,1,0.3,1.8,1,2.5s1.5,1,2.5,1h11.3c1,0,1.8-0.3,2.5-1s1-1.5,1-2.5v-21.7
		c0-0.9-0.3-1.8-1-2.5S252.2,141.3,251.2,141.3z M251.1,166.3H240V145h11.1V166.3z"/>
</g>
</svg>
