<?xml version="1.0" encoding="utf-8"?>
<!-- Generator: Adobe Illustrator 16.0.0, SVG Export Plug-In . SVG Version: 6.00 Build 0)  -->
<!DOCTYPE svg PUBLIC "-//W3C//DTD SVG 1.1//EN" "http://www.w3.org/Graphics/SVG/1.1/DTD/svg11.dtd">
<svg version="1.1" id="Layer_1" xmlns="http://www.w3.org/2000/svg" xmlns:xlink="http://www.w3.org/1999/xlink" x="0px" y="0px"
	 width="792px" height="191.688px" viewBox="0 0 792 191.688" enable-background="new 0 0 792 191.688" xml:space="preserve">
<g>
	<g>
		<path fill="#28BDE0" d="M96.878,84.113c2.622,1.012,5.426,1.857,8.411,2.535c2.984,0.68,6.23,1.02,9.737,1.02
			c2.274,0,4.359-0.205,6.255-0.617c1.896-0.41,3.53-1.057,4.904-1.941c1.375-0.885,2.447-2.014,3.223-3.389
			c0.773-1.375,1.16-3.025,1.16-4.951c0-2.086-0.418-3.744-1.256-4.977c-0.837-1.232-2.014-2.242-3.529-3.031
			c-1.517-0.791-3.35-1.453-5.497-1.99c-2.148-0.537-4.533-1.139-7.155-1.801c-2.938-0.76-5.615-1.627-8.031-2.607
			c-2.417-0.979-4.479-2.242-6.184-3.791c-1.707-1.547-3.033-3.459-3.98-5.732c-0.948-2.275-1.422-5.086-1.422-8.436
			c0-2.242,0.371-4.248,1.113-6.018s1.745-3.309,3.01-4.619c1.263-1.311,2.725-2.426,4.383-3.342s3.395-1.658,5.212-2.227
			c1.816-0.568,3.673-0.979,5.567-1.232c1.896-0.252,3.697-0.379,5.402-0.379c1.2,0,2.646,0.064,4.336,0.189
			c1.689,0.127,3.49,0.355,5.402,0.688c1.91,0.332,3.885,0.766,5.923,1.303s4.004,1.217,5.899,2.037l-3.364,8.246
			c-2.528-0.916-5.157-1.658-7.89-2.229c-2.732-0.568-5.6-0.852-8.601-0.852c-1.896,0-3.634,0.15-5.212,0.449
			c-1.58,0.301-2.947,0.781-4.1,1.445c-1.153,0.664-2.045,1.533-2.678,2.607c-0.631,1.074-0.947,2.369-0.947,3.885
			c0,1.959,0.387,3.49,1.161,4.596c0.774,1.107,1.888,2.008,3.341,2.701c1.453,0.695,3.229,1.287,5.33,1.777
			c2.102,0.49,4.479,1.082,7.133,1.777c2.905,0.758,5.582,1.65,8.031,2.678c2.447,1.025,4.564,2.354,6.35,3.98
			c1.784,1.627,3.182,3.641,4.193,6.041c1.011,2.4,1.517,5.354,1.517,8.861c0,3.096-0.49,5.75-1.469,7.961
			c-0.979,2.211-2.259,4.066-3.839,5.566c-1.58,1.502-3.381,2.693-5.401,3.578c-2.022,0.885-4.075,1.564-6.16,2.037
			c-2.085,0.475-4.106,0.783-6.065,0.924c-1.959,0.143-3.681,0.215-5.165,0.215c-1.453-0.033-3.088-0.127-4.904-0.285
			c-1.817-0.158-3.72-0.41-5.71-0.758s-4.004-0.813-6.041-1.398c-2.038-0.584-4.005-1.303-5.9-2.156L96.878,84.113z"/>
		<path fill="#28BDE0" d="M181.975,89.469c-1.833,2.338-3.941,4.186-6.326,5.543c-2.386,1.359-5.268,2.039-8.648,2.039
			c-3.316,0-6.112-0.648-8.387-1.943c-2.275-1.295-4.115-3.033-5.521-5.213c-1.406-2.18-2.417-4.707-3.032-7.582
			c-0.617-2.873-0.924-5.906-0.924-9.098c0-4.295,0.488-8.15,1.469-11.563c0.979-3.41,2.574-6.309,4.785-8.695
			c2.211-2.385,5.109-4.217,8.695-5.496c3.585-1.279,8-1.92,13.244-1.92c3.223,0,6.263,0.15,9.122,0.451
			c2.858,0.301,5.726,0.656,8.601,1.066v67.713h-12.842V89.469H181.975z M182.211,55.92c-1.296-0.285-2.559-0.506-3.791-0.664
			s-2.416-0.236-3.554-0.236c-1.864,0-3.57,0.236-5.118,0.711c-1.547,0.473-2.891,1.264-4.027,2.369s-2.021,2.574-2.653,4.406
			s-0.948,4.123-0.948,6.871c0,2.654,0.103,5.094,0.309,7.32c0.205,2.229,0.64,4.146,1.303,5.758
			c0.664,1.611,1.611,2.867,2.844,3.768c1.231,0.9,2.874,1.35,4.928,1.35c1.264,0,2.393-0.229,3.389-0.688
			c0.994-0.457,1.918-1.09,2.771-1.895s1.643-1.76,2.369-2.867c0.727-1.105,1.453-2.322,2.18-3.648V55.92z"/>
		<path fill="#28BDE0" d="M251.197,46.631v30.422c0,2.559,0.023,4.699,0.07,6.422c0.047,1.721,0.135,3.246,0.261,4.572
			c0.063,0.664,0.126,1.248,0.189,1.754c0.063,0.504,0.134,0.994,0.214,1.469c0.078,0.473,0.173,0.963,0.283,1.469
			c0.111,0.506,0.245,1.059,0.403,1.658c-2.054,0.537-4.099,1.02-6.136,1.445c-2.038,0.426-4.1,0.828-6.185,1.209
			c-0.253-0.664-0.466-1.32-0.64-1.967c-0.174-0.648-0.324-1.344-0.45-2.086s-0.237-1.555-0.331-2.439
			c-0.096-0.885-0.189-1.896-0.285-3.033h-0.615c-1.043,1.58-2.125,2.961-3.246,4.146c-1.122,1.184-2.322,2.18-3.602,2.984
			c-1.279,0.807-2.686,1.406-4.217,1.801c-1.533,0.395-3.23,0.594-5.094,0.594c-3.949,0-7.054-0.799-9.313-2.395
			c-2.258-1.594-3.893-3.861-4.904-6.799c-0.6-1.707-1.026-3.586-1.279-5.639s-0.379-4.297-0.379-6.729V46.631h12.984v32.602
			c0,2.719,0.623,4.787,1.871,6.209c1.248,1.42,2.945,2.131,5.094,2.131c1.201,0,2.377-0.283,3.53-0.852
			c1.153-0.57,2.267-1.311,3.341-2.229c1.074-0.916,2.068-1.967,2.985-3.15c0.916-1.186,1.737-2.377,2.464-3.578V46.631H251.197z"/>
		<path fill="#28BDE0" d="M263.178,49.049c1.168-0.475,2.503-0.916,4.004-1.326c1.5-0.412,3.096-0.783,4.785-1.115
			c1.69-0.33,3.443-0.592,5.26-0.781s3.656-0.285,5.521-0.285c2.621,0,5.077,0.207,7.368,0.617c2.29,0.41,4.193,1.09,5.71,2.037
			c1.516,0.947,2.701,2.236,3.554,3.861c0.853,1.629,1.279,3.674,1.279,6.137v19.238c0,2.213,0.016,4.18,0.048,5.9
			c0.031,1.723,0.094,3.404,0.189,5.047c0.063,0.6,0.125,1.145,0.189,1.635c0.063,0.49,0.134,0.963,0.213,1.422
			c0.078,0.457,0.174,0.939,0.285,1.445c0.109,0.504,0.244,1.059,0.402,1.658c-1.959,0.441-3.91,0.869-5.853,1.279
			s-3.909,0.805-5.899,1.184c-0.348-0.885-0.624-1.791-0.829-2.725c-0.206-0.932-0.388-1.998-0.545-3.197h-0.711
			c-1.106,1.137-2.212,2.084-3.317,2.842s-2.258,1.375-3.459,1.848c-1.201,0.475-2.448,0.807-3.743,0.996
			c-1.296,0.189-2.653,0.285-4.075,0.285c-2.18,0-4.201-0.262-6.064-0.783c-1.865-0.521-3.483-1.318-4.857-2.393
			c-1.375-1.074-2.449-2.439-3.223-4.1c-0.774-1.658-1.16-3.607-1.16-5.852c0-1.895,0.196-3.584,0.592-5.07
			c0.395-1.484,0.955-2.811,1.682-3.98c0.727-1.168,1.596-2.195,2.606-3.08c1.011-0.883,2.132-1.658,3.364-2.322
			c2.465-1.326,5.213-2.234,8.245-2.725c3.032-0.488,6.128-0.734,9.288-0.734h4.074v-6.16c0-1.168-0.182-2.092-0.545-2.771
			s-0.853-1.191-1.469-1.539c-0.615-0.348-1.334-0.576-2.156-0.688c-0.821-0.111-1.705-0.166-2.652-0.166
			c-2.56,0-5.143,0.324-7.748,0.971c-2.606,0.648-5.094,1.445-7.463,2.393L263.178,49.049z M288.102,72.979h-0.947
			c-2.243,0.031-4.383,0.197-6.42,0.498c-2.038,0.299-3.832,0.813-5.379,1.539c-1.549,0.727-2.788,1.682-3.72,2.867
			c-0.933,1.184-1.397,2.678-1.397,4.479c0,1.988,0.576,3.521,1.729,4.596c1.153,1.074,2.772,1.611,4.857,1.611
			c0.979,0,1.99-0.135,3.033-0.402c1.042-0.27,2.068-0.648,3.08-1.139c1.01-0.488,1.958-1.098,2.843-1.824
			c0.884-0.727,1.659-1.563,2.321-2.512V72.979z"/>
		<path fill="#28BDE0" d="M354.15,27.678V79.85v2.037c0,2.463,0.078,4.684,0.236,6.658s0.505,3.973,1.043,5.994
			c-1.012,0.283-1.99,0.545-2.938,0.781s-1.888,0.459-2.819,0.664s-1.871,0.395-2.819,0.568c-0.948,0.172-1.942,0.338-2.985,0.498
			c-0.254-0.664-0.467-1.295-0.64-1.896c-0.174-0.6-0.331-1.248-0.474-1.943c-0.143-0.693-0.261-1.451-0.355-2.273
			s-0.174-1.785-0.237-2.891h-0.521c-3.666,6.002-8.846,9.004-15.543,9.004c-3.316,0-6.113-0.648-8.387-1.943
			c-2.275-1.295-4.115-3.041-5.521-5.236c-1.405-2.195-2.416-4.738-3.032-7.629s-0.924-5.947-0.924-9.17
			c0-4.549,0.608-8.537,1.824-11.965c1.216-3.426,2.93-6.293,5.142-8.6c2.211-2.307,4.857-4.043,7.938-5.213
			c3.08-1.168,6.482-1.754,10.211-1.754c1.357,0,2.678,0.064,3.957,0.191c1.279,0.125,2.566,0.283,3.861,0.473V27.678H354.15z
			 M341.309,55.967c-2.527-0.631-4.881-0.947-7.061-0.947c-1.864,0-3.594,0.252-5.189,0.758c-1.595,0.506-2.977,1.326-4.146,2.465
			c-1.169,1.137-2.077,2.605-2.725,4.406s-0.972,3.996-0.972,6.586c0,2.686,0.103,5.15,0.309,7.393
			c0.205,2.244,0.639,4.178,1.303,5.805s1.611,2.891,2.844,3.791c1.231,0.9,2.873,1.35,4.928,1.35c1.484,0,2.787-0.299,3.909-0.9
			c1.12-0.6,2.14-1.438,3.056-2.512c0.695-0.758,1.343-1.617,1.943-2.582c0.6-0.963,1.2-1.998,1.801-3.104V55.967z"/>
		<path fill="#28BDE0" d="M408.493,46.631l-16.396,49.756h-15.637l-16.396-49.756h13.552l10.662,40.42l10.662-40.42H408.493z"/>
		<path fill="#28BDE0" d="M455.255,93.686c-1.296,0.537-2.709,1.012-4.241,1.422s-3.136,0.758-4.81,1.043
			c-1.675,0.283-3.373,0.504-5.094,0.662c-1.723,0.158-3.404,0.238-5.047,0.238c-8.309,0-14.587-1.998-18.836-5.996
			c-4.249-3.994-6.373-10.115-6.373-18.361c0-3.664,0.427-7.139,1.279-10.424c0.854-3.285,2.234-6.168,4.146-8.648
			c1.911-2.48,4.422-4.445,7.534-5.898c3.111-1.453,6.926-2.182,11.443-2.182c7.897,0,13.789,2.094,17.675,6.279
			s5.828,10.576,5.828,19.168v3.742h-35.018c0.063,2.15,0.315,4.045,0.759,5.688c0.441,1.643,1.176,3.025,2.203,4.146
			c1.026,1.121,2.377,1.975,4.052,2.559c1.674,0.584,3.774,0.877,6.302,0.877c2.211,0,4.597-0.277,7.155-0.83
			s5.228-1.35,8.008-2.393L455.255,93.686z M445.777,66.297c-0.221-7.803-3.728-11.705-10.52-11.705
			c-3.506,0-6.168,1.012-7.984,3.033s-2.931,4.912-3.341,8.672H445.777z"/>
		<path fill="#28BDE0" d="M480.313,55.066c1.043-1.58,2.124-2.961,3.246-4.146c1.121-1.184,2.322-2.18,3.602-2.984
			c1.279-0.807,2.685-1.406,4.217-1.801s3.229-0.594,5.094-0.594c2.085,0,3.934,0.23,5.544,0.688c1.611,0.459,3.001,1.123,4.17,1.99
			c1.169,0.869,2.156,1.943,2.962,3.223s1.445,2.725,1.919,4.336c0.442,1.611,0.766,3.357,0.972,5.236
			c0.205,1.879,0.308,3.908,0.308,6.088v28.811h-12.983V63.359c0-2.717-0.624-4.787-1.871-6.207
			c-1.249-1.422-2.946-2.133-5.095-2.133c-1.2,0-2.377,0.283-3.53,0.852c-1.153,0.57-2.267,1.32-3.34,2.252
			c-1.074,0.932-2.069,1.982-2.985,3.15c-0.917,1.17-1.738,2.354-2.464,3.555v31.084h-12.984V65.539c0-2.559-0.023-4.699-0.07-6.422
			c-0.048-1.721-0.135-3.246-0.261-4.572c-0.064-0.664-0.127-1.248-0.189-1.754c-0.064-0.504-0.135-0.994-0.214-1.469
			c-0.079-0.473-0.174-0.955-0.284-1.445c-0.111-0.488-0.245-1.049-0.402-1.682c2.053-0.537,4.099-1.018,6.136-1.445
			c2.038-0.426,4.1-0.828,6.185-1.209c0.22,0.664,0.426,1.32,0.615,1.967c0.189,0.648,0.348,1.344,0.475,2.086
			c0.125,0.742,0.236,1.557,0.331,2.439c0.095,0.885,0.189,1.896,0.284,3.033H480.313z"/>
		<path fill="#28BDE0" d="M538.97,35.354v11.277h16.584v9.479H538.97v23.645c0,1.549,0.07,2.828,0.213,3.838
			c0.142,1.012,0.402,1.809,0.781,2.395c0.38,0.584,0.9,0.994,1.564,1.23c0.663,0.238,1.516,0.355,2.559,0.355
			c1.011,0,2.188-0.109,3.53-0.332c1.342-0.221,2.93-0.535,4.762-0.947c0.189,0.568,0.403,1.232,0.64,1.99
			c0.237,0.758,0.475,1.541,0.711,2.346c0.237,0.807,0.466,1.58,0.688,2.322c0.221,0.742,0.427,1.398,0.616,1.967
			c-0.885,0.316-1.92,0.607-3.104,0.877c-1.185,0.268-2.425,0.496-3.72,0.686s-2.605,0.332-3.933,0.428
			c-1.327,0.094-2.575,0.143-3.743,0.143c-1.106,0-2.196-0.049-3.27-0.143c-1.074-0.096-2.094-0.262-3.057-0.498
			c-0.964-0.236-1.856-0.545-2.678-0.924s-1.532-0.869-2.132-1.469c-1.391-1.357-2.307-3.23-2.748-5.615
			c-0.443-2.385-0.664-5.426-0.664-9.121V56.109h-7.107v-9.479h7.107V35.354H538.97z"/>
		<path fill="#28BDE0" d="M607.102,46.631v30.422c0,2.559,0.023,4.699,0.071,6.422c0.047,1.721,0.134,3.246,0.261,4.572
			c0.063,0.664,0.125,1.248,0.189,1.754c0.063,0.504,0.134,0.994,0.213,1.469c0.078,0.473,0.173,0.963,0.284,1.469
			c0.11,0.506,0.244,1.059,0.403,1.658c-2.055,0.537-4.1,1.02-6.137,1.445c-2.038,0.426-4.099,0.828-6.184,1.209
			c-0.254-0.664-0.467-1.32-0.64-1.967c-0.175-0.648-0.324-1.344-0.45-2.086c-0.127-0.742-0.237-1.555-0.332-2.439
			s-0.189-1.896-0.284-3.033h-0.616c-1.042,1.58-2.125,2.961-3.246,4.146c-1.121,1.184-2.321,2.18-3.601,2.984
			c-1.28,0.807-2.686,1.406-4.218,1.801s-3.23,0.594-5.094,0.594c-3.949,0-7.053-0.799-9.312-2.395
			c-2.259-1.594-3.894-3.861-4.904-6.799c-0.601-1.707-1.027-3.586-1.279-5.639c-0.253-2.053-0.379-4.297-0.379-6.729V46.631h12.983
			v32.602c0,2.719,0.623,4.787,1.872,6.209c1.247,1.42,2.945,2.131,5.094,2.131c1.2,0,2.377-0.283,3.53-0.852
			c1.152-0.57,2.266-1.311,3.341-2.229c1.073-0.916,2.068-1.967,2.984-3.15c0.916-1.186,1.737-2.377,2.465-3.578V46.631H607.102z"/>
		<path fill="#28BDE0" d="M631.782,55.066c1.137-1.674,2.195-3.049,3.175-4.123c0.947-1.041,1.942-1.902,2.985-2.582
			c1.042-0.68,2.092-1.232,3.15-1.658s2.125-0.727,3.199-0.9c1.073-0.174,2.132-0.262,3.175-0.262c0.884,0,1.745,0.057,2.582,0.166
			c0.837,0.111,1.619,0.246,2.346,0.404c-0.095,0.885-0.222,1.824-0.379,2.818c-0.158,0.996-0.332,1.998-0.521,3.01
			s-0.402,2.006-0.64,2.984c-0.236,0.98-0.481,1.896-0.734,2.748c-1.801-0.346-3.364-0.639-4.691-0.875
			c-1.326-0.238-2.511-0.355-3.554-0.355c-0.979,0-1.872,0.135-2.677,0.402c-0.806,0.268-1.604,0.734-2.394,1.398
			c-0.79,0.662-1.604,1.539-2.44,2.629s-1.776,2.457-2.819,4.1v30.941h-12.983V65.539c0-1.832-0.017-3.547-0.048-5.143
			c-0.031-1.594-0.095-3.096-0.189-4.5c-0.095-1.406-0.236-2.74-0.426-4.004s-0.443-2.496-0.759-3.697
			c2.054-0.537,4.1-1.025,6.137-1.469c2.037-0.441,4.099-0.836,6.184-1.186c0.221,0.664,0.427,1.32,0.616,1.967
			c0.189,0.648,0.348,1.344,0.474,2.086s0.237,1.557,0.332,2.439c0.095,0.885,0.189,1.896,0.284,3.033H631.782z"/>
		<path fill="#28BDE0" d="M699.63,93.686c-1.296,0.537-2.709,1.012-4.241,1.422s-3.136,0.758-4.81,1.043
			c-1.675,0.283-3.373,0.504-5.094,0.662c-1.723,0.158-3.404,0.238-5.047,0.238c-8.309,0-14.587-1.998-18.836-5.996
			c-4.249-3.994-6.373-10.115-6.373-18.361c0-3.664,0.427-7.139,1.279-10.424c0.854-3.285,2.234-6.168,4.146-8.648
			c1.911-2.48,4.422-4.445,7.534-5.898c3.111-1.453,6.926-2.182,11.443-2.182c7.897,0,13.789,2.094,17.675,6.279
			s5.828,10.576,5.828,19.168v3.742h-35.018c0.063,2.15,0.315,4.045,0.759,5.688c0.441,1.643,1.176,3.025,2.203,4.146
			c1.026,1.121,2.377,1.975,4.052,2.559c1.674,0.584,3.774,0.877,6.302,0.877c2.211,0,4.597-0.277,7.155-0.83
			s5.228-1.35,8.008-2.393L699.63,93.686z M690.152,66.297c-0.221-7.803-3.728-11.705-10.52-11.705
			c-3.506,0-6.168,1.012-7.984,3.033s-2.931,4.912-3.341,8.672H690.152z"/>
	</g>
	<g>
		<g>
			<g>
				<path fill="#28BDE0" d="M328.965,162.158c-0.633,0.316-1.352,0.6-2.156,0.852c-0.805,0.25-1.666,0.463-2.586,0.635
					c-0.92,0.174-1.875,0.305-2.867,0.398c-0.991,0.094-1.982,0.141-2.975,0.141c-2.515,0-4.713-0.258-6.596-0.775
					s-3.449-1.381-4.699-2.588s-2.185-2.805-2.803-4.795c-0.617-1.99-0.926-4.465-0.926-7.426c0-3.09,0.322-5.684,0.969-7.781
					c0.647-2.1,1.574-3.791,2.781-5.076c1.207-1.287,2.67-2.211,4.387-2.771s3.639-0.84,5.766-0.84c0.906,0,1.822,0.047,2.748,0.141
					c0.928,0.094,1.844,0.232,2.749,0.42s1.778,0.42,2.619,0.701c0.841,0.279,1.628,0.6,2.36,0.959l-1.66,4.203
					c-1.451-0.689-2.885-1.186-4.301-1.488c-1.415-0.301-2.756-0.451-4.02-0.451c-1.438,0-2.677,0.225-3.719,0.678
					c-1.041,0.453-1.9,1.143-2.575,2.07c-0.676,0.926-1.175,2.105-1.499,3.535c-0.322,1.43-0.484,3.113-0.484,5.055
					c0,2.055,0.165,3.818,0.496,5.291c0.33,1.473,0.852,2.691,1.563,3.654s1.617,1.67,2.716,2.123c1.1,0.453,2.425,0.68,3.978,0.68
					c0.775,0,1.569-0.059,2.381-0.174c0.813-0.115,1.635-0.271,2.469-0.475v-7.479h-4.936v-4.377h10.82V162.158z"/>
				<path fill="#28BDE0" d="M355.086,132.67l11.704,30.996h-6.079l-3.535-9.527h-10.217l-3.535,9.527h-6.078l11.704-30.996H355.086z
					 M352.068,139.072l-3.514,10.734h7.026L352.068,139.072z"/>
				<path fill="#28BDE0" d="M407.354,132.67l3.535,30.996h-5.906l-2.544-23.064h-0.129l-6.661,23.172h-6.639l-6.66-23.172h-0.13
					l-2.544,23.064h-5.906l3.535-30.996h7.89l7.135,24.854l7.135-24.854H407.354z"/>
				<path fill="#28BDE0" d="M439.338,132.67v4.418h-12.523v7.027h8.859v4.42h-8.859v10.713h12.976v4.418H420.8V132.67H439.338z"/>
				<path fill="#28BDE0" d="M450.758,158.299c1.192,0.461,2.468,0.846,3.826,1.154c1.357,0.309,2.834,0.463,4.43,0.463
					c1.034,0,1.982-0.094,2.845-0.281c0.862-0.186,1.606-0.48,2.231-0.883s1.113-0.916,1.466-1.541
					c0.352-0.625,0.528-1.377,0.528-2.252c0-0.949-0.191-1.703-0.571-2.264c-0.381-0.561-0.916-1.021-1.606-1.381
					c-0.689-0.357-1.523-0.66-2.5-0.904c-0.978-0.244-2.063-0.518-3.255-0.82c-1.337-0.344-2.555-0.738-3.654-1.186
					c-1.099-0.445-2.036-1.02-2.813-1.723c-0.776-0.705-1.38-1.574-1.811-2.609c-0.432-1.035-0.646-2.313-0.646-3.836
					c0-1.021,0.168-1.934,0.506-2.738s0.794-1.506,1.369-2.102c0.574-0.596,1.239-1.104,1.994-1.52
					c0.754-0.416,1.544-0.754,2.371-1.014c0.826-0.258,1.67-0.445,2.532-0.561s1.682-0.172,2.458-0.172
					c0.546,0,1.203,0.029,1.972,0.086c0.769,0.059,1.588,0.162,2.458,0.313c0.869,0.15,1.768,0.35,2.694,0.594
					s1.821,0.553,2.684,0.926l-1.53,3.752c-1.15-0.418-2.347-0.756-3.59-1.014c-1.243-0.26-2.547-0.389-3.912-0.389
					c-0.862,0-1.652,0.068-2.371,0.205s-1.34,0.355-1.864,0.658c-0.524,0.301-0.931,0.697-1.218,1.186
					c-0.288,0.488-0.432,1.076-0.432,1.768c0,0.891,0.176,1.588,0.528,2.09c0.353,0.504,0.858,0.912,1.52,1.229
					s1.47,0.586,2.425,0.809c0.956,0.223,2.037,0.492,3.244,0.809c1.322,0.346,2.54,0.752,3.654,1.219
					c1.113,0.467,2.076,1.07,2.889,1.811c0.812,0.74,1.447,1.656,1.907,2.748s0.689,2.436,0.689,4.031
					c0,1.408-0.223,2.615-0.668,3.621s-1.027,1.85-1.746,2.531c-0.719,0.684-1.538,1.227-2.457,1.629
					c-0.92,0.402-1.854,0.711-2.803,0.926c-0.948,0.217-1.868,0.355-2.759,0.42c-0.892,0.066-1.674,0.098-2.35,0.098
					c-0.661-0.014-1.404-0.057-2.23-0.129c-0.827-0.072-1.692-0.188-2.598-0.346s-1.821-0.369-2.749-0.635
					c-0.927-0.266-1.821-0.594-2.684-0.98L450.758,158.299z"/>
			</g>
		</g>
		<polygon fill="#28BDE0" points="527.004,146.984 513.534,149.971 526.986,153.008 671.815,150.326 		"/>
		<polygon fill="#28BDE0" points="264.989,153.307 278.46,150.316 265.007,147.275 120.179,149.961 		"/>
	</g>
</g>
</svg>
