<?xml version="1.0" encoding="utf-8"?>
<!-- Generator: Adobe Illustrator 19.0.0, SVG Export Plug-In . SVG Version: 6.00 Build 0)  -->
<svg version="1.1" id="Capa_1" xmlns="http://www.w3.org/2000/svg" xmlns:xlink="http://www.w3.org/1999/xlink" x="0px" y="0px"
	 viewBox="0 0 500 500" style="enable-background:new 0 0 500 500;" xml:space="preserve">
<style type="text/css">
	.st0{fill:#24BDE0;enable-background:new    ;}
	.st1{fill:#FFFFFF;}
</style>
<path id="XMLID_4_" class="st0" d="M81.3,120.1c13.9-13.8,32.5-29.5,56.4-43.6c50.4-29.7,98.9-37.4,128.1-39.5c11.9,0,23.7,0,35.6,0
	c6.3,0.4,13.6,1.4,21.7,3.2c9.8,2.3,18,5.3,24.7,8.3c7.1,4,14.3,7.9,21.4,11.9c21.8,12.4,45.8,27.9,70.5,47.3
	c14.9,11.7,28.3,23.5,40.2,34.8c2.3,2.3,5.4,5.9,7.7,11c1.2,2.6,1.9,5,2.4,7.1c0.1,3.8,0.2,7.5,0.3,11.3c-0.9,4.4-1.9,9.2-3.3,14.2
	c-1.3,4.6-2.7,8.9-4.1,12.8c-3.7,11.3-9.3,26.8-17.1,44.8c-3.2,7.5-11.2,25.4-32.3,62.8c-8.1,14.4-29.4,51.7-57.1,91.7
	c0,0-8.7,12.6-35.6,42.9c-2.6,3-7.8,8.7-16.1,14.4c-5.2,3.6-10,6-13.3,7.5c-3.8,0.1-9.2,0.1-15.6-0.6c-0.5-0.1-5.3-0.6-10.6-1.7
	c-17.6-3.7-36.8-11.8-36.8-11.8c-27-11.4-45.3-20.4-45.3-20.4c-11.8-5.8-27.1-13.5-44.9-23.3c-17.4-9.7-31.8-18.4-42.7-25.1
	c-12.5-7.7-24.5-15.4-35.9-23.1c-8.8-6-21.7-15.2-34.5-25.8c-6.1-5.1-9.8-8.5-14.2-12.7c-2.8-2.7-7.3-6.9-12.4-12.9
	c-5-5.9-7.7-9.9-8.4-15.2c-0.2-1.8-0.2-3.3-0.1-4.3c0.1-3.1,0.3-7.8,1.1-13.6c1.6-10.8,4.3-18.7,5.9-23c13.1-36,25.3-59.9,25.3-59.9
	C51.7,171,64.6,147.3,81.3,120.1z"/>
<g id="XMLID_6_">
	<path id="XMLID_3_" class="st1" d="M141.5,161.5H198v110.6c0.1,2.1,0.3,5.1,1.3,8.6c0.6,2.2,3.8,13.6,13.3,19.6
		c9.1,5.7,21.7,5,32.4-1.3c0.4,0.2,0.8,0.4,1.2,0.6c0.3,3.5,0.9,7.6,2.2,12.2c1.4,5,3.2,9.1,4.8,12.4c-3.5,4.1-9.6,10.2-18.7,15.1
		c-10.4,5.6-19.9,7.1-25.6,7.6c-4.7,0-9.4,0-14.1,0c-6.1-0.2-18.6-1.7-29.7-10.6c-1.3-1.1-5-4.2-9.2-10
		c-10.7-14.9-13.3-32-13.8-43.1C141.9,242.6,141.7,202,141.5,161.5z"/>
	<path id="XMLID_2_" class="st1" d="M225.3,164v40.2h28.9v89.3c0,3.2,0.4,22.2,16.1,36.7c14.5,13.4,31.8,13.4,35.4,13.3
		c5.5,0,11.1,0,16.6,0c3.2,0.1,6.9-0.1,10.9-0.6c7.2-1,13.1-3,17.6-4.9c0-13.3,0.1-26.7,0.1-40c-0.3-0.2-0.6-0.5-0.9-0.7
		c-1.5,1-3.5,2.1-6,3c-2.3,0.9-4.3,1.3-6,1.6c-3.5,0.1-7,0.2-10.5,0.3c-1.9-0.3-5.3-1.2-8.6-3.8c-3.2-2.4-4.8-5.2-5.8-7.1
		c-2.2-4-3-7.9-3.3-10.7c0-56.4,0.1-112.8,0.1-169.2L225.3,164z"/>
	<rect id="XMLID_1_" x="318.3" y="164.7" class="st1" width="32.5" height="39.9"/>
</g>
</svg>
